<?xml version="1.0"?>
<svg xmlns="http://www.w3.org/2000/svg" width="1024" height="1024" viewBox="0 0 46 46" fill="none">
  <defs>
    <svg xmlns="http://www.w3.org/2000/svg" shape-rendering="geometricPrecision" class="qrcode" viewBox="0 0 39 39" id="qrcode">
      <rect fill="#FFFFFF" width="100%" height="100%"/>
      <path class="modules" fill="#840000" d="M0 0 m0 .4a.4.4 0 10.8 0 .4.4 0 10-.8 0 M1 0 m0 .4a.4.4 0 10.8 0 .4.4 0 10-.8 0 M6 0 m0 .4a.4.4 0 10.8 0 .4.4 0 10-.8 0 M7 0 m0 .4a.4.4 0 10.8 0 .4.4 0 10-.8 0 M8 0 m0 .4a.4.4 0 10.8 0 .4.4 0 10-.8 0 M10 0 m0 .4a.4.4 0 10.8 0 .4.4 0 10-.8 0 M12 0 m0 .4a.4.4 0 10.8 0 .4.4 0 10-.8 0 M14 0 m0 .4a.4.4 0 10.8 0 .4.4 0 10-.8 0 M15 0 m0 .4a.4.4 0 10.8 0 .4.4 0 10-.8 0 M16 0 m0 .4a.4.4 0 10.8 0 .4.4 0 10-.8 0 M17 0 m0 .4a.4.4 0 10.8 0 .4.4 0 10-.8 0 M18 0 m0 .4a.4.4 0 10.8 0 .4.4 0 10-.8 0 M22 0 m0 .4a.4.4 0 10.8 0 .4.4 0 10-.8 0 M23 0 m0 .4a.4.4 0 10.8 0 .4.4 0 10-.8 0 M25 0 m0 .4a.4.4 0 10.8 0 .4.4 0 10-.8 0 M27 0 m0 .4a.4.4 0 10.8 0 .4.4 0 10-.8 0 M28 0 m0 .4a.4.4 0 10.8 0 .4.4 0 10-.8 0 M31 0 m0 .4a.4.4 0 10.8 0 .4.4 0 10-.8 0 M33 0 m0 .4a.4.4 0 10.8 0 .4.4 0 10-.8 0 M34 0 m0 .4a.4.4 0 10.8 0 .4.4 0 10-.8 0 M36 0 m0 .4a.4.4 0 10.8 0 .4.4 0 10-.8 0 M38 0 m0 .4a.4.4 0 10.8 0 .4.4 0 10-.8 0 M4 1 m0 .4a.4.4 0 10.8 0 .4.4 0 10-.8 0 M7 1 m0 .4a.4.4 0 10.8 0 .4.4 0 10-.8 0 M8 1 m0 .4a.4.4 0 10.8 0 .4.4 0 10-.8 0 M12 1 m0 .4a.4.4 0 10.8 0 .4.4 0 10-.8 0 M13 1 m0 .4a.4.4 0 10.8 0 .4.4 0 10-.8 0 M16 1 m0 .4a.4.4 0 10.8 0 .4.4 0 10-.8 0 M17 1 m0 .4a.4.4 0 10.8 0 .4.4 0 10-.8 0 M18 1 m0 .4a.4.4 0 10.8 0 .4.4 0 10-.8 0 M19 1 m0 .4a.4.4 0 10.8 0 .4.4 0 10-.8 0 M21 1 m0 .4a.4.4 0 10.8 0 .4.4 0 10-.8 0 M22 1 m0 .4a.4.4 0 10.8 0 .4.4 0 10-.8 0 M24 1 m0 .4a.4.4 0 10.8 0 .4.4 0 10-.8 0 M25 1 m0 .4a.4.4 0 10.8 0 .4.4 0 10-.8 0 M27 1 m0 .4a.4.4 0 10.8 0 .4.4 0 10-.8 0 M28 1 m0 .4a.4.4 0 10.8 0 .4.4 0 10-.8 0 M29 1 m0 .4a.4.4 0 10.8 0 .4.4 0 10-.8 0 M30 1 m0 .4a.4.4 0 10.8 0 .4.4 0 10-.8 0 M33 1 m0 .4a.4.4 0 10.8 0 .4.4 0 10-.8 0 M34 1 m0 .4a.4.4 0 10.8 0 .4.4 0 10-.8 0 M36 1 m0 .4a.4.4 0 10.8 0 .4.4 0 10-.8 0 M38 1 m0 .4a.4.4 0 10.8 0 .4.4 0 10-.8 0 M0 2 m0 .4a.4.4 0 10.8 0 .4.4 0 10-.8 0 M2 2 m0 .4a.4.4 0 10.8 0 .4.4 0 10-.8 0 M3 2 m0 .4a.4.4 0 10.8 0 .4.4 0 10-.8 0 M4 2 m0 .4a.4.4 0 10.8 0 .4.4 0 10-.8 0 M6 2 m0 .4a.4.4 0 10.8 0 .4.4 0 10-.8 0 M7 2 m0 .4a.4.4 0 10.8 0 .4.4 0 10-.8 0 M8 2 m0 .4a.4.4 0 10.8 0 .4.4 0 10-.8 0 M10 2 m0 .4a.4.4 0 10.8 0 .4.4 0 10-.8 0 M11 2 m0 .4a.4.4 0 10.8 0 .4.4 0 10-.8 0 M12 2 m0 .4a.4.4 0 10.8 0 .4.4 0 10-.8 0 M14 2 m0 .4a.4.4 0 10.8 0 .4.4 0 10-.8 0 M15 2 m0 .4a.4.4 0 10.8 0 .4.4 0 10-.8 0 M16 2 m0 .4a.4.4 0 10.8 0 .4.4 0 10-.8 0 M17 2 m0 .4a.4.4 0 10.8 0 .4.4 0 10-.8 0 M20 2 m0 .4a.4.4 0 10.8 0 .4.4 0 10-.8 0 M21 2 m0 .4a.4.4 0 10.8 0 .4.4 0 10-.8 0 M22 2 m0 .4a.4.4 0 10.8 0 .4.4 0 10-.8 0 M24 2 m0 .4a.4.4 0 10.8 0 .4.4 0 10-.8 0 M25 2 m0 .4a.4.4 0 10.8 0 .4.4 0 10-.8 0 M26 2 m0 .4a.4.4 0 10.8 0 .4.4 0 10-.8 0 M27 2 m0 .4a.4.4 0 10.8 0 .4.4 0 10-.8 0 M30 2 m0 .4a.4.4 0 10.8 0 .4.4 0 10-.8 0 M32 2 m0 .4a.4.4 0 10.8 0 .4.4 0 10-.8 0 M33 2 m0 .4a.4.4 0 10.8 0 .4.4 0 10-.8 0 M34 2 m0 .4a.4.4 0 10.8 0 .4.4 0 10-.8 0 M35 2 m0 .4a.4.4 0 10.8 0 .4.4 0 10-.8 0 M37 2 m0 .4a.4.4 0 10.8 0 .4.4 0 10-.8 0 M38 2 m0 .4a.4.4 0 10.8 0 .4.4 0 10-.8 0 M2 3 m0 .4a.4.4 0 10.8 0 .4.4 0 10-.8 0 M5 3 m0 .4a.4.4 0 10.8 0 .4.4 0 10-.8 0 M8 3 m0 .4a.4.4 0 10.8 0 .4.4 0 10-.8 0 M10 3 m0 .4a.4.4 0 10.8 0 .4.4 0 10-.8 0 M11 3 m0 .4a.4.4 0 10.8 0 .4.4 0 10-.8 0 M12 3 m0 .4a.4.4 0 10.8 0 .4.4 0 10-.8 0 M14 3 m0 .4a.4.4 0 10.8 0 .4.4 0 10-.8 0 M16 3 m0 .4a.4.4 0 10.8 0 .4.4 0 10-.8 0 M18 3 m0 .4a.4.4 0 10.8 0 .4.4 0 10-.8 0 M20 3 m0 .4a.4.4 0 10.8 0 .4.4 0 10-.8 0 M21 3 m0 .4a.4.4 0 10.8 0 .4.4 0 10-.8 0 M25 3 m0 .4a.4.4 0 10.8 0 .4.4 0 10-.8 0 M26 3 m0 .4a.4.4 0 10.8 0 .4.4 0 10-.8 0 M28 3 m0 .4a.4.4 0 10.8 0 .4.4 0 10-.8 0 M29 3 m0 .4a.4.4 0 10.8 0 .4.4 0 10-.8 0 M30 3 m0 .4a.4.4 0 10.8 0 .4.4 0 10-.8 0 M32 3 m0 .4a.4.4 0 10.8 0 .4.4 0 10-.8 0 M33 3 m0 .4a.4.4 0 10.8 0 .4.4 0 10-.8 0 M34 3 m0 .4a.4.4 0 10.8 0 .4.4 0 10-.8 0 M35 3 m0 .4a.4.4 0 10.8 0 .4.4 0 10-.8 0 M37 3 m0 .4a.4.4 0 10.8 0 .4.4 0 10-.8 0 M1 4 m0 .4a.4.4 0 10.8 0 .4.4 0 10-.8 0 M4 4 m0 .4a.4.4 0 10.8 0 .4.4 0 10-.8 0 M5 4 m0 .4a.4.4 0 10.8 0 .4.4 0 10-.8 0 M6 4 m0 .4a.4.4 0 10.8 0 .4.4 0 10-.8 0 M8 4 m0 .4a.4.4 0 10.8 0 .4.4 0 10-.8 0 M10 4 m0 .4a.4.4 0 10.8 0 .4.4 0 10-.8 0 M11 4 m0 .4a.4.4 0 10.8 0 .4.4 0 10-.8 0 M12 4 m0 .4a.4.4 0 10.8 0 .4.4 0 10-.8 0 M15 4 m0 .4a.4.4 0 10.8 0 .4.4 0 10-.8 0 M17 4 m0 .4a.4.4 0 10.8 0 .4.4 0 10-.8 0 M18 4 m0 .4a.4.4 0 10.8 0 .4.4 0 10-.8 0 M19 4 m0 .4a.4.4 0 10.8 0 .4.4 0 10-.8 0 M20 4 m0 .4a.4.4 0 10.8 0 .4.4 0 10-.8 0 M22 4 m0 .4a.4.4 0 10.8 0 .4.4 0 10-.8 0 M24 4 m0 .4a.4.4 0 10.8 0 .4.4 0 10-.8 0 M27 4 m0 .4a.4.4 0 10.8 0 .4.4 0 10-.8 0 M28 4 m0 .4a.4.4 0 10.8 0 .4.4 0 10-.8 0 M30 4 m0 .4a.4.4 0 10.8 0 .4.4 0 10-.8 0 M36 4 m0 .4a.4.4 0 10.8 0 .4.4 0 10-.8 0 M37 4 m0 .4a.4.4 0 10.8 0 .4.4 0 10-.8 0 M38 4 m0 .4a.4.4 0 10.8 0 .4.4 0 10-.8 0 M0 5 m0 .4a.4.4 0 10.8 0 .4.4 0 10-.8 0 M1 5 m0 .4a.4.4 0 10.8 0 .4.4 0 10-.8 0 M4 5 m0 .4a.4.4 0 10.8 0 .4.4 0 10-.8 0 M5 5 m0 .4a.4.4 0 10.8 0 .4.4 0 10-.8 0 M8 5 m0 .4a.4.4 0 10.8 0 .4.4 0 10-.8 0 M12 5 m0 .4a.4.4 0 10.8 0 .4.4 0 10-.8 0 M13 5 m0 .4a.4.4 0 10.8 0 .4.4 0 10-.8 0 M17 5 m0 .4a.4.4 0 10.8 0 .4.4 0 10-.8 0 M21 5 m0 .4a.4.4 0 10.8 0 .4.4 0 10-.8 0 M23 5 m0 .4a.4.4 0 10.8 0 .4.4 0 10-.8 0 M24 5 m0 .4a.4.4 0 10.8 0 .4.4 0 10-.8 0 M26 5 m0 .4a.4.4 0 10.8 0 .4.4 0 10-.8 0 M27 5 m0 .4a.4.4 0 10.8 0 .4.4 0 10-.8 0 M28 5 m0 .4a.4.4 0 10.8 0 .4.4 0 10-.8 0 M30 5 m0 .4a.4.4 0 10.8 0 .4.4 0 10-.8 0 M31 5 m0 .4a.4.4 0 10.8 0 .4.4 0 10-.8 0 M34 5 m0 .4a.4.4 0 10.8 0 .4.4 0 10-.8 0 M38 5 m0 .4a.4.4 0 10.8 0 .4.4 0 10-.8 0 M0 6 m0 .4a.4.4 0 10.8 0 .4.4 0 10-.8 0 M2 6 m0 .4a.4.4 0 10.8 0 .4.4 0 10-.8 0 M4 6 m0 .4a.4.4 0 10.8 0 .4.4 0 10-.8 0 M33 6 m0 .4a.4.4 0 10.8 0 .4.4 0 10-.8 0 M37 6 m0 .4a.4.4 0 10.8 0 .4.4 0 10-.8 0 M38 6 m0 .4a.4.4 0 10.8 0 .4.4 0 10-.8 0 M3 7 m0 .4a.4.4 0 10.8 0 .4.4 0 10-.8 0 M17 7 m0 .4a.4.4 0 10.8 0 .4.4 0 10-.8 0 M18 7 m0 .4a.4.4 0 10.8 0 .4.4 0 10-.8 0 M19 7 m0 .4a.4.4 0 10.8 0 .4.4 0 10-.8 0 M20 7 m0 .4a.4.4 0 10.8 0 .4.4 0 10-.8 0 M21 7 m0 .4a.4.4 0 10.8 0 .4.4 0 10-.8 0 M22 7 m0 .4a.4.4 0 10.8 0 .4.4 0 10-.8 0 M33 7 m0 .4a.4.4 0 10.8 0 .4.4 0 10-.8 0 M34 7 m0 .4a.4.4 0 10.8 0 .4.4 0 10-.8 0 M35 7 m0 .4a.4.4 0 10.8 0 .4.4 0 10-.8 0 M36 7 m0 .4a.4.4 0 10.8 0 .4.4 0 10-.8 0 M37 7 m0 .4a.4.4 0 10.8 0 .4.4 0 10-.8 0 M0 8 m0 .4a.4.4 0 10.8 0 .4.4 0 10-.8 0 M4 8 m0 .4a.4.4 0 10.8 0 .4.4 0 10-.8 0 M16 8 m0 .4a.4.4 0 10.8 0 .4.4 0 10-.8 0 M19 8 m0 .4a.4.4 0 10.8 0 .4.4 0 10-.8 0 M20 8 m0 .4a.4.4 0 10.8 0 .4.4 0 10-.8 0 M21 8 m0 .4a.4.4 0 10.8 0 .4.4 0 10-.8 0 M22 8 m0 .4a.4.4 0 10.8 0 .4.4 0 10-.8 0 M23 8 m0 .4a.4.4 0 10.8 0 .4.4 0 10-.8 0 M33 8 m0 .4a.4.4 0 10.8 0 .4.4 0 10-.8 0 M34 8 m0 .4a.4.4 0 10.8 0 .4.4 0 10-.8 0 M35 8 m0 .4a.4.4 0 10.8 0 .4.4 0 10-.8 0 M36 8 m0 .4a.4.4 0 10.8 0 .4.4 0 10-.8 0 M37 8 m0 .4a.4.4 0 10.8 0 .4.4 0 10-.8 0 M1 9 m0 .4a.4.4 0 10.8 0 .4.4 0 10-.8 0 M15 9 m0 .4a.4.4 0 10.8 0 .4.4 0 10-.8 0 M16 9 m0 .4a.4.4 0 10.8 0 .4.4 0 10-.8 0 M17 9 m0 .4a.4.4 0 10.8 0 .4.4 0 10-.8 0 M18 9 m0 .4a.4.4 0 10.8 0 .4.4 0 10-.8 0 M20 9 m0 .4a.4.4 0 10.8 0 .4.4 0 10-.8 0 M22 9 m0 .4a.4.4 0 10.8 0 .4.4 0 10-.8 0 M34 9 m0 .4a.4.4 0 10.8 0 .4.4 0 10-.8 0 M35 9 m0 .4a.4.4 0 10.8 0 .4.4 0 10-.8 0 M36 9 m0 .4a.4.4 0 10.8 0 .4.4 0 10-.8 0 M38 9 m0 .4a.4.4 0 10.8 0 .4.4 0 10-.8 0 M5 10 m0 .4a.4.4 0 10.8 0 .4.4 0 10-.8 0 M15 10 m0 .4a.4.4 0 10.8 0 .4.4 0 10-.8 0 M17 10 m0 .4a.4.4 0 10.8 0 .4.4 0 10-.8 0 M21 10 m0 .4a.4.4 0 10.8 0 .4.4 0 10-.8 0 M22 10 m0 .4a.4.4 0 10.8 0 .4.4 0 10-.8 0 M34 10 m0 .4a.4.4 0 10.8 0 .4.4 0 10-.8 0 M36 10 m0 .4a.4.4 0 10.8 0 .4.4 0 10-.8 0 M1 11 m0 .4a.4.4 0 10.8 0 .4.4 0 10-.8 0 M3 11 m0 .4a.4.4 0 10.8 0 .4.4 0 10-.8 0 M5 11 m0 .4a.4.4 0 10.8 0 .4.4 0 10-.8 0 M15 11 m0 .4a.4.4 0 10.8 0 .4.4 0 10-.8 0 M16 11 m0 .4a.4.4 0 10.8 0 .4.4 0 10-.8 0 M17 11 m0 .4a.4.4 0 10.8 0 .4.4 0 10-.8 0 M18 11 m0 .4a.4.4 0 10.8 0 .4.4 0 10-.8 0 M22 11 m0 .4a.4.4 0 10.8 0 .4.4 0 10-.8 0 M23 11 m0 .4a.4.4 0 10.8 0 .4.4 0 10-.8 0 M34 11 m0 .4a.4.4 0 10.8 0 .4.4 0 10-.8 0 M35 11 m0 .4a.4.4 0 10.8 0 .4.4 0 10-.8 0 M37 11 m0 .4a.4.4 0 10.8 0 .4.4 0 10-.8 0 M0 12 m0 .4a.4.4 0 10.8 0 .4.4 0 10-.8 0 M1 12 m0 .4a.4.4 0 10.8 0 .4.4 0 10-.8 0 M2 12 m0 .4a.4.4 0 10.8 0 .4.4 0 10-.8 0 M3 12 m0 .4a.4.4 0 10.8 0 .4.4 0 10-.8 0 M5 12 m0 .4a.4.4 0 10.8 0 .4.4 0 10-.8 0 M15 12 m0 .4a.4.4 0 10.8 0 .4.4 0 10-.8 0 M16 12 m0 .4a.4.4 0 10.8 0 .4.4 0 10-.8 0 M17 12 m0 .4a.4.4 0 10.8 0 .4.4 0 10-.8 0 M33 12 m0 .4a.4.4 0 10.8 0 .4.4 0 10-.8 0 M35 12 m0 .4a.4.4 0 10.8 0 .4.4 0 10-.8 0 M36 12 m0 .4a.4.4 0 10.8 0 .4.4 0 10-.8 0 M37 12 m0 .4a.4.4 0 10.8 0 .4.4 0 10-.8 0 M0 13 m0 .4a.4.4 0 10.8 0 .4.4 0 10-.8 0 M5 13 m0 .4a.4.4 0 10.8 0 .4.4 0 10-.8 0 M15 13 m0 .4a.4.4 0 10.8 0 .4.4 0 10-.8 0 M17 13 m0 .4a.4.4 0 10.8 0 .4.4 0 10-.8 0 M19 13 m0 .4a.4.4 0 10.8 0 .4.4 0 10-.8 0 M21 13 m0 .4a.4.4 0 10.8 0 .4.4 0 10-.8 0 M23 13 m0 .4a.4.4 0 10.8 0 .4.4 0 10-.8 0 M34 13 m0 .4a.4.4 0 10.8 0 .4.4 0 10-.8 0 M35 13 m0 .4a.4.4 0 10.8 0 .4.4 0 10-.8 0 M38 13 m0 .4a.4.4 0 10.8 0 .4.4 0 10-.8 0 M1 14 m0 .4a.4.4 0 10.8 0 .4.4 0 10-.8 0 M2 14 m0 .4a.4.4 0 10.8 0 .4.4 0 10-.8 0 M4 14 m0 .4a.4.4 0 10.8 0 .4.4 0 10-.8 0 M15 14 m0 .4a.4.4 0 10.8 0 .4.4 0 10-.8 0 M18 14 m0 .4a.4.4 0 10.8 0 .4.4 0 10-.8 0 M19 14 m0 .4a.4.4 0 10.8 0 .4.4 0 10-.8 0 M21 14 m0 .4a.4.4 0 10.8 0 .4.4 0 10-.8 0 M23 14 m0 .4a.4.4 0 10.8 0 .4.4 0 10-.8 0 M33 14 m0 .4a.4.4 0 10.8 0 .4.4 0 10-.8 0 M37 14 m0 .4a.4.4 0 10.8 0 .4.4 0 10-.8 0 M0 15 m0 .4a.4.4 0 10.8 0 .4.4 0 10-.8 0 M7 15 m0 .4a.4.4 0 10.8 0 .4.4 0 10-.8 0 M9 15 m0 .4a.4.4 0 10.8 0 .4.4 0 10-.8 0 M10 15 m0 .4a.4.4 0 10.8 0 .4.4 0 10-.8 0 M11 15 m0 .4a.4.4 0 10.8 0 .4.4 0 10-.8 0 M12 15 m0 .4a.4.4 0 10.8 0 .4.4 0 10-.8 0 M13 15 m0 .4a.4.4 0 10.8 0 .4.4 0 10-.8 0 M18 15 m0 .4a.4.4 0 10.8 0 .4.4 0 10-.8 0 M19 15 m0 .4a.4.4 0 10.8 0 .4.4 0 10-.8 0 M25 15 m0 .4a.4.4 0 10.8 0 .4.4 0 10-.8 0 M26 15 m0 .4a.4.4 0 10.8 0 .4.4 0 10-.8 0 M27 15 m0 .4a.4.4 0 10.8 0 .4.4 0 10-.8 0 M28 15 m0 .4a.4.4 0 10.8 0 .4.4 0 10-.8 0 M29 15 m0 .4a.4.4 0 10.8 0 .4.4 0 10-.8 0 M33 15 m0 .4a.4.4 0 10.8 0 .4.4 0 10-.8 0 M34 15 m0 .4a.4.4 0 10.8 0 .4.4 0 10-.8 0 M2 16 m0 .4a.4.4 0 10.8 0 .4.4 0 10-.8 0 M5 16 m0 .4a.4.4 0 10.8 0 .4.4 0 10-.8 0 M7 16 m0 .4a.4.4 0 10.8 0 .4.4 0 10-.8 0 M8 16 m0 .4a.4.4 0 10.8 0 .4.4 0 10-.8 0 M9 16 m0 .4a.4.4 0 10.8 0 .4.4 0 10-.8 0 M11 16 m0 .4a.4.4 0 10.8 0 .4.4 0 10-.8 0 M14 16 m0 .4a.4.4 0 10.8 0 .4.4 0 10-.8 0 M17 16 m0 .4a.4.4 0 10.8 0 .4.4 0 10-.8 0 M18 16 m0 .4a.4.4 0 10.8 0 .4.4 0 10-.8 0 M20 16 m0 .4a.4.4 0 10.8 0 .4.4 0 10-.8 0 M21 16 m0 .4a.4.4 0 10.8 0 .4.4 0 10-.8 0 M22 16 m0 .4a.4.4 0 10.8 0 .4.4 0 10-.8 0 M26 16 m0 .4a.4.4 0 10.8 0 .4.4 0 10-.8 0 M30 16 m0 .4a.4.4 0 10.8 0 .4.4 0 10-.8 0 M33 16 m0 .4a.4.4 0 10.8 0 .4.4 0 10-.8 0 M35 16 m0 .4a.4.4 0 10.8 0 .4.4 0 10-.8 0 M37 16 m0 .4a.4.4 0 10.8 0 .4.4 0 10-.8 0 M38 16 m0 .4a.4.4 0 10.8 0 .4.4 0 10-.8 0 M0 17 m0 .4a.4.4 0 10.8 0 .4.4 0 10-.8 0 M1 17 m0 .4a.4.4 0 10.8 0 .4.4 0 10-.8 0 M4 17 m0 .4a.4.4 0 10.8 0 .4.4 0 10-.8 0 M8 17 m0 .4a.4.4 0 10.8 0 .4.4 0 10-.8 0 M10 17 m0 .4a.4.4 0 10.8 0 .4.4 0 10-.8 0 M13 17 m0 .4a.4.4 0 10.8 0 .4.4 0 10-.8 0 M15 17 m0 .4a.4.4 0 10.8 0 .4.4 0 10-.8 0 M17 17 m0 .4a.4.4 0 10.8 0 .4.4 0 10-.8 0 M18 17 m0 .4a.4.4 0 10.8 0 .4.4 0 10-.8 0 M19 17 m0 .4a.4.4 0 10.8 0 .4.4 0 10-.8 0 M20 17 m0 .4a.4.4 0 10.8 0 .4.4 0 10-.8 0 M21 17 m0 .4a.4.4 0 10.8 0 .4.4 0 10-.8 0 M22 17 m0 .4a.4.4 0 10.8 0 .4.4 0 10-.8 0 M26 17 m0 .4a.4.4 0 10.8 0 .4.4 0 10-.8 0 M27 17 m0 .4a.4.4 0 10.8 0 .4.4 0 10-.8 0 M30 17 m0 .4a.4.4 0 10.8 0 .4.4 0 10-.8 0 M31 17 m0 .4a.4.4 0 10.8 0 .4.4 0 10-.8 0 M35 17 m0 .4a.4.4 0 10.8 0 .4.4 0 10-.8 0 M36 17 m0 .4a.4.4 0 10.8 0 .4.4 0 10-.8 0 M37 17 m0 .4a.4.4 0 10.8 0 .4.4 0 10-.8 0 M0 18 m0 .4a.4.4 0 10.8 0 .4.4 0 10-.8 0 M2 18 m0 .4a.4.4 0 10.8 0 .4.4 0 10-.8 0 M4 18 m0 .4a.4.4 0 10.8 0 .4.4 0 10-.8 0 M5 18 m0 .4a.4.4 0 10.8 0 .4.4 0 10-.8 0 M7 18 m0 .4a.4.4 0 10.8 0 .4.4 0 10-.8 0 M8 18 m0 .4a.4.4 0 10.8 0 .4.4 0 10-.8 0 M12 18 m0 .4a.4.4 0 10.8 0 .4.4 0 10-.8 0 M16 18 m0 .4a.4.4 0 10.8 0 .4.4 0 10-.8 0 M17 18 m0 .4a.4.4 0 10.8 0 .4.4 0 10-.8 0 M19 18 m0 .4a.4.4 0 10.8 0 .4.4 0 10-.8 0 M20 18 m0 .4a.4.4 0 10.8 0 .4.4 0 10-.8 0 M23 18 m0 .4a.4.4 0 10.8 0 .4.4 0 10-.8 0 M24 18 m0 .4a.4.4 0 10.8 0 .4.4 0 10-.8 0 M26 18 m0 .4a.4.4 0 10.8 0 .4.4 0 10-.8 0 M27 18 m0 .4a.4.4 0 10.8 0 .4.4 0 10-.8 0 M33 18 m0 .4a.4.4 0 10.8 0 .4.4 0 10-.8 0 M35 18 m0 .4a.4.4 0 10.8 0 .4.4 0 10-.8 0 M38 18 m0 .4a.4.4 0 10.8 0 .4.4 0 10-.8 0 M1 19 m0 .4a.4.4 0 10.8 0 .4.4 0 10-.8 0 M2 19 m0 .4a.4.4 0 10.8 0 .4.4 0 10-.8 0 M7 19 m0 .4a.4.4 0 10.8 0 .4.4 0 10-.8 0 M8 19 m0 .4a.4.4 0 10.8 0 .4.4 0 10-.8 0 M9 19 m0 .4a.4.4 0 10.8 0 .4.4 0 10-.8 0 M13 19 m0 .4a.4.4 0 10.8 0 .4.4 0 10-.8 0 M16 19 m0 .4a.4.4 0 10.8 0 .4.4 0 10-.8 0 M18 19 m0 .4a.4.4 0 10.8 0 .4.4 0 10-.8 0 M19 19 m0 .4a.4.4 0 10.8 0 .4.4 0 10-.8 0 M21 19 m0 .4a.4.4 0 10.8 0 .4.4 0 10-.8 0 M22 19 m0 .4a.4.4 0 10.8 0 .4.4 0 10-.8 0 M23 19 m0 .4a.4.4 0 10.8 0 .4.4 0 10-.8 0 M25 19 m0 .4a.4.4 0 10.8 0 .4.4 0 10-.8 0 M27 19 m0 .4a.4.4 0 10.8 0 .4.4 0 10-.8 0 M29 19 m0 .4a.4.4 0 10.8 0 .4.4 0 10-.8 0 M31 19 m0 .4a.4.4 0 10.8 0 .4.4 0 10-.8 0 M34 19 m0 .4a.4.4 0 10.8 0 .4.4 0 10-.8 0 M35 19 m0 .4a.4.4 0 10.8 0 .4.4 0 10-.8 0 M37 19 m0 .4a.4.4 0 10.8 0 .4.4 0 10-.8 0 M38 19 m0 .4a.4.4 0 10.8 0 .4.4 0 10-.8 0 M0 20 m0 .4a.4.4 0 10.8 0 .4.4 0 10-.8 0 M5 20 m0 .4a.4.4 0 10.8 0 .4.4 0 10-.8 0 M7 20 m0 .4a.4.4 0 10.8 0 .4.4 0 10-.8 0 M8 20 m0 .4a.4.4 0 10.8 0 .4.4 0 10-.8 0 M9 20 m0 .4a.4.4 0 10.8 0 .4.4 0 10-.8 0 M12 20 m0 .4a.4.4 0 10.8 0 .4.4 0 10-.8 0 M14 20 m0 .4a.4.4 0 10.8 0 .4.4 0 10-.8 0 M17 20 m0 .4a.4.4 0 10.8 0 .4.4 0 10-.8 0 M22 20 m0 .4a.4.4 0 10.8 0 .4.4 0 10-.8 0 M23 20 m0 .4a.4.4 0 10.8 0 .4.4 0 10-.8 0 M24 20 m0 .4a.4.4 0 10.8 0 .4.4 0 10-.8 0 M28 20 m0 .4a.4.4 0 10.8 0 .4.4 0 10-.8 0 M30 20 m0 .4a.4.4 0 10.8 0 .4.4 0 10-.8 0 M33 20 m0 .4a.4.4 0 10.8 0 .4.4 0 10-.8 0 M34 20 m0 .4a.4.4 0 10.8 0 .4.4 0 10-.8 0 M36 20 m0 .4a.4.4 0 10.8 0 .4.4 0 10-.8 0 M37 20 m0 .4a.4.4 0 10.8 0 .4.4 0 10-.8 0 M38 20 m0 .4a.4.4 0 10.8 0 .4.4 0 10-.8 0 M0 21 m0 .4a.4.4 0 10.8 0 .4.4 0 10-.8 0 M2 21 m0 .4a.4.4 0 10.8 0 .4.4 0 10-.8 0 M4 21 m0 .4a.4.4 0 10.8 0 .4.4 0 10-.8 0 M5 21 m0 .4a.4.4 0 10.8 0 .4.4 0 10-.8 0 M7 21 m0 .4a.4.4 0 10.8 0 .4.4 0 10-.8 0 M12 21 m0 .4a.4.4 0 10.8 0 .4.4 0 10-.8 0 M13 21 m0 .4a.4.4 0 10.8 0 .4.4 0 10-.8 0 M14 21 m0 .4a.4.4 0 10.8 0 .4.4 0 10-.8 0 M16 21 m0 .4a.4.4 0 10.8 0 .4.4 0 10-.8 0 M18 21 m0 .4a.4.4 0 10.8 0 .4.4 0 10-.8 0 M19 21 m0 .4a.4.4 0 10.8 0 .4.4 0 10-.8 0 M22 21 m0 .4a.4.4 0 10.8 0 .4.4 0 10-.8 0 M23 21 m0 .4a.4.4 0 10.8 0 .4.4 0 10-.8 0 M24 21 m0 .4a.4.4 0 10.8 0 .4.4 0 10-.8 0 M25 21 m0 .4a.4.4 0 10.8 0 .4.4 0 10-.8 0 M26 21 m0 .4a.4.4 0 10.8 0 .4.4 0 10-.8 0 M27 21 m0 .4a.4.4 0 10.8 0 .4.4 0 10-.8 0 M28 21 m0 .4a.4.4 0 10.8 0 .4.4 0 10-.8 0 M30 21 m0 .4a.4.4 0 10.8 0 .4.4 0 10-.8 0 M31 21 m0 .4a.4.4 0 10.8 0 .4.4 0 10-.8 0 M33 21 m0 .4a.4.4 0 10.8 0 .4.4 0 10-.8 0 M34 21 m0 .4a.4.4 0 10.8 0 .4.4 0 10-.8 0 M35 21 m0 .4a.4.4 0 10.8 0 .4.4 0 10-.8 0 M36 21 m0 .4a.4.4 0 10.8 0 .4.4 0 10-.8 0 M37 21 m0 .4a.4.4 0 10.8 0 .4.4 0 10-.8 0 M38 21 m0 .4a.4.4 0 10.8 0 .4.4 0 10-.8 0 M1 22 m0 .4a.4.4 0 10.8 0 .4.4 0 10-.8 0 M3 22 m0 .4a.4.4 0 10.8 0 .4.4 0 10-.8 0 M7 22 m0 .4a.4.4 0 10.8 0 .4.4 0 10-.8 0 M10 22 m0 .4a.4.4 0 10.8 0 .4.4 0 10-.8 0 M12 22 m0 .4a.4.4 0 10.8 0 .4.4 0 10-.8 0 M16 22 m0 .4a.4.4 0 10.8 0 .4.4 0 10-.8 0 M18 22 m0 .4a.4.4 0 10.8 0 .4.4 0 10-.8 0 M21 22 m0 .4a.4.4 0 10.8 0 .4.4 0 10-.8 0 M25 22 m0 .4a.4.4 0 10.8 0 .4.4 0 10-.8 0 M26 22 m0 .4a.4.4 0 10.8 0 .4.4 0 10-.8 0 M28 22 m0 .4a.4.4 0 10.8 0 .4.4 0 10-.8 0 M30 22 m0 .4a.4.4 0 10.8 0 .4.4 0 10-.8 0 M31 22 m0 .4a.4.4 0 10.8 0 .4.4 0 10-.8 0 M34 22 m0 .4a.4.4 0 10.8 0 .4.4 0 10-.8 0 M35 22 m0 .4a.4.4 0 10.8 0 .4.4 0 10-.8 0 M37 22 m0 .4a.4.4 0 10.8 0 .4.4 0 10-.8 0 M38 22 m0 .4a.4.4 0 10.8 0 .4.4 0 10-.8 0 M1 23 m0 .4a.4.4 0 10.8 0 .4.4 0 10-.8 0 M2 23 m0 .4a.4.4 0 10.8 0 .4.4 0 10-.8 0 M3 23 m0 .4a.4.4 0 10.8 0 .4.4 0 10-.8 0 M4 23 m0 .4a.4.4 0 10.8 0 .4.4 0 10-.8 0 M5 23 m0 .4a.4.4 0 10.8 0 .4.4 0 10-.8 0 M7 23 m0 .4a.4.4 0 10.8 0 .4.4 0 10-.8 0 M9 23 m0 .4a.4.4 0 10.8 0 .4.4 0 10-.8 0 M10 23 m0 .4a.4.4 0 10.8 0 .4.4 0 10-.8 0 M12 23 m0 .4a.4.4 0 10.8 0 .4.4 0 10-.8 0 M13 23 m0 .4a.4.4 0 10.8 0 .4.4 0 10-.8 0 M14 23 m0 .4a.4.4 0 10.8 0 .4.4 0 10-.8 0 M16 23 m0 .4a.4.4 0 10.8 0 .4.4 0 10-.8 0 M17 23 m0 .4a.4.4 0 10.8 0 .4.4 0 10-.8 0 M18 23 m0 .4a.4.4 0 10.8 0 .4.4 0 10-.8 0 M22 23 m0 .4a.4.4 0 10.8 0 .4.4 0 10-.8 0 M23 23 m0 .4a.4.4 0 10.8 0 .4.4 0 10-.8 0 M24 23 m0 .4a.4.4 0 10.8 0 .4.4 0 10-.8 0 M25 23 m0 .4a.4.4 0 10.8 0 .4.4 0 10-.8 0 M26 23 m0 .4a.4.4 0 10.8 0 .4.4 0 10-.8 0 M27 23 m0 .4a.4.4 0 10.8 0 .4.4 0 10-.8 0 M28 23 m0 .4a.4.4 0 10.8 0 .4.4 0 10-.8 0 M29 23 m0 .4a.4.4 0 10.8 0 .4.4 0 10-.8 0 M31 23 m0 .4a.4.4 0 10.8 0 .4.4 0 10-.8 0 M34 23 m0 .4a.4.4 0 10.8 0 .4.4 0 10-.8 0 M36 23 m0 .4a.4.4 0 10.8 0 .4.4 0 10-.8 0 M37 23 m0 .4a.4.4 0 10.8 0 .4.4 0 10-.8 0 M38 23 m0 .4a.4.4 0 10.8 0 .4.4 0 10-.8 0 M0 24 m0 .4a.4.4 0 10.8 0 .4.4 0 10-.8 0 M4 24 m0 .4a.4.4 0 10.8 0 .4.4 0 10-.8 0 M5 24 m0 .4a.4.4 0 10.8 0 .4.4 0 10-.8 0 M15 24 m0 .4a.4.4 0 10.8 0 .4.4 0 10-.8 0 M19 24 m0 .4a.4.4 0 10.8 0 .4.4 0 10-.8 0 M20 24 m0 .4a.4.4 0 10.8 0 .4.4 0 10-.8 0 M21 24 m0 .4a.4.4 0 10.8 0 .4.4 0 10-.8 0 M23 24 m0 .4a.4.4 0 10.8 0 .4.4 0 10-.8 0 M27 24 m0 .4a.4.4 0 10.8 0 .4.4 0 10-.8 0 M29 24 m0 .4a.4.4 0 10.8 0 .4.4 0 10-.8 0 M30 24 m0 .4a.4.4 0 10.8 0 .4.4 0 10-.8 0 M33 24 m0 .4a.4.4 0 10.8 0 .4.4 0 10-.8 0 M34 24 m0 .4a.4.4 0 10.8 0 .4.4 0 10-.8 0 M35 24 m0 .4a.4.4 0 10.8 0 .4.4 0 10-.8 0 M0 25 m0 .4a.4.4 0 10.8 0 .4.4 0 10-.8 0 M2 25 m0 .4a.4.4 0 10.8 0 .4.4 0 10-.8 0 M4 25 m0 .4a.4.4 0 10.8 0 .4.4 0 10-.8 0 M16 25 m0 .4a.4.4 0 10.8 0 .4.4 0 10-.8 0 M17 25 m0 .4a.4.4 0 10.8 0 .4.4 0 10-.8 0 M20 25 m0 .4a.4.4 0 10.8 0 .4.4 0 10-.8 0 M21 25 m0 .4a.4.4 0 10.8 0 .4.4 0 10-.8 0 M22 25 m0 .4a.4.4 0 10.8 0 .4.4 0 10-.8 0 M23 25 m0 .4a.4.4 0 10.8 0 .4.4 0 10-.8 0 M25 25 m0 .4a.4.4 0 10.8 0 .4.4 0 10-.8 0 M27 25 m0 .4a.4.4 0 10.8 0 .4.4 0 10-.8 0 M28 25 m0 .4a.4.4 0 10.8 0 .4.4 0 10-.8 0 M29 25 m0 .4a.4.4 0 10.8 0 .4.4 0 10-.8 0 M30 25 m0 .4a.4.4 0 10.8 0 .4.4 0 10-.8 0 M31 25 m0 .4a.4.4 0 10.8 0 .4.4 0 10-.8 0 M35 25 m0 .4a.4.4 0 10.8 0 .4.4 0 10-.8 0 M36 25 m0 .4a.4.4 0 10.8 0 .4.4 0 10-.8 0 M38 25 m0 .4a.4.4 0 10.8 0 .4.4 0 10-.8 0 M1 26 m0 .4a.4.4 0 10.8 0 .4.4 0 10-.8 0 M15 26 m0 .4a.4.4 0 10.8 0 .4.4 0 10-.8 0 M17 26 m0 .4a.4.4 0 10.8 0 .4.4 0 10-.8 0 M19 26 m0 .4a.4.4 0 10.8 0 .4.4 0 10-.8 0 M20 26 m0 .4a.4.4 0 10.8 0 .4.4 0 10-.8 0 M23 26 m0 .4a.4.4 0 10.8 0 .4.4 0 10-.8 0 M27 26 m0 .4a.4.4 0 10.8 0 .4.4 0 10-.8 0 M30 26 m0 .4a.4.4 0 10.8 0 .4.4 0 10-.8 0 M0 27 m0 .4a.4.4 0 10.8 0 .4.4 0 10-.8 0 M2 27 m0 .4a.4.4 0 10.8 0 .4.4 0 10-.8 0 M3 27 m0 .4a.4.4 0 10.8 0 .4.4 0 10-.8 0 M5 27 m0 .4a.4.4 0 10.8 0 .4.4 0 10-.8 0 M15 27 m0 .4a.4.4 0 10.8 0 .4.4 0 10-.8 0 M16 27 m0 .4a.4.4 0 10.8 0 .4.4 0 10-.8 0 M19 27 m0 .4a.4.4 0 10.8 0 .4.4 0 10-.8 0 M21 27 m0 .4a.4.4 0 10.8 0 .4.4 0 10-.8 0 M22 27 m0 .4a.4.4 0 10.8 0 .4.4 0 10-.8 0 M23 27 m0 .4a.4.4 0 10.8 0 .4.4 0 10-.8 0 M24 27 m0 .4a.4.4 0 10.8 0 .4.4 0 10-.8 0 M25 27 m0 .4a.4.4 0 10.8 0 .4.4 0 10-.8 0 M26 27 m0 .4a.4.4 0 10.8 0 .4.4 0 10-.8 0 M27 27 m0 .4a.4.4 0 10.8 0 .4.4 0 10-.8 0 M28 27 m0 .4a.4.4 0 10.8 0 .4.4 0 10-.8 0 M29 27 m0 .4a.4.4 0 10.8 0 .4.4 0 10-.8 0 M30 27 m0 .4a.4.4 0 10.8 0 .4.4 0 10-.8 0 M34 27 m0 .4a.4.4 0 10.8 0 .4.4 0 10-.8 0 M35 27 m0 .4a.4.4 0 10.8 0 .4.4 0 10-.8 0 M36 27 m0 .4a.4.4 0 10.8 0 .4.4 0 10-.8 0 M38 27 m0 .4a.4.4 0 10.8 0 .4.4 0 10-.8 0 M0 28 m0 .4a.4.4 0 10.8 0 .4.4 0 10-.8 0 M1 28 m0 .4a.4.4 0 10.8 0 .4.4 0 10-.8 0 M5 28 m0 .4a.4.4 0 10.8 0 .4.4 0 10-.8 0 M15 28 m0 .4a.4.4 0 10.8 0 .4.4 0 10-.8 0 M16 28 m0 .4a.4.4 0 10.8 0 .4.4 0 10-.8 0 M22 28 m0 .4a.4.4 0 10.8 0 .4.4 0 10-.8 0 M24 28 m0 .4a.4.4 0 10.8 0 .4.4 0 10-.8 0 M25 28 m0 .4a.4.4 0 10.8 0 .4.4 0 10-.8 0 M27 28 m0 .4a.4.4 0 10.8 0 .4.4 0 10-.8 0 M29 28 m0 .4a.4.4 0 10.8 0 .4.4 0 10-.8 0 M31 28 m0 .4a.4.4 0 10.8 0 .4.4 0 10-.8 0 M35 28 m0 .4a.4.4 0 10.8 0 .4.4 0 10-.8 0 M36 28 m0 .4a.4.4 0 10.8 0 .4.4 0 10-.8 0 M38 28 m0 .4a.4.4 0 10.8 0 .4.4 0 10-.8 0 M0 29 m0 .4a.4.4 0 10.8 0 .4.4 0 10-.8 0 M4 29 m0 .4a.4.4 0 10.8 0 .4.4 0 10-.8 0 M15 29 m0 .4a.4.4 0 10.8 0 .4.4 0 10-.8 0 M17 29 m0 .4a.4.4 0 10.8 0 .4.4 0 10-.8 0 M18 29 m0 .4a.4.4 0 10.8 0 .4.4 0 10-.8 0 M19 29 m0 .4a.4.4 0 10.8 0 .4.4 0 10-.8 0 M23 29 m0 .4a.4.4 0 10.8 0 .4.4 0 10-.8 0 M25 29 m0 .4a.4.4 0 10.8 0 .4.4 0 10-.8 0 M26 29 m0 .4a.4.4 0 10.8 0 .4.4 0 10-.8 0 M29 29 m0 .4a.4.4 0 10.8 0 .4.4 0 10-.8 0 M31 29 m0 .4a.4.4 0 10.8 0 .4.4 0 10-.8 0 M33 29 m0 .4a.4.4 0 10.8 0 .4.4 0 10-.8 0 M36 29 m0 .4a.4.4 0 10.8 0 .4.4 0 10-.8 0 M38 29 m0 .4a.4.4 0 10.8 0 .4.4 0 10-.8 0 M0 30 m0 .4a.4.4 0 10.8 0 .4.4 0 10-.8 0 M2 30 m0 .4a.4.4 0 10.8 0 .4.4 0 10-.8 0 M4 30 m0 .4a.4.4 0 10.8 0 .4.4 0 10-.8 0 M16 30 m0 .4a.4.4 0 10.8 0 .4.4 0 10-.8 0 M18 30 m0 .4a.4.4 0 10.8 0 .4.4 0 10-.8 0 M21 30 m0 .4a.4.4 0 10.8 0 .4.4 0 10-.8 0 M22 30 m0 .4a.4.4 0 10.8 0 .4.4 0 10-.8 0 M23 30 m0 .4a.4.4 0 10.8 0 .4.4 0 10-.8 0 M25 30 m0 .4a.4.4 0 10.8 0 .4.4 0 10-.8 0 M27 30 m0 .4a.4.4 0 10.8 0 .4.4 0 10-.8 0 M31 30 m0 .4a.4.4 0 10.8 0 .4.4 0 10-.8 0 M33 30 m0 .4a.4.4 0 10.8 0 .4.4 0 10-.8 0 M1 31 m0 .4a.4.4 0 10.8 0 .4.4 0 10-.8 0 M2 31 m0 .4a.4.4 0 10.8 0 .4.4 0 10-.8 0 M4 31 m0 .4a.4.4 0 10.8 0 .4.4 0 10-.8 0 M5 31 m0 .4a.4.4 0 10.8 0 .4.4 0 10-.8 0 M15 31 m0 .4a.4.4 0 10.8 0 .4.4 0 10-.8 0 M18 31 m0 .4a.4.4 0 10.8 0 .4.4 0 10-.8 0 M29 31 m0 .4a.4.4 0 10.8 0 .4.4 0 10-.8 0 M30 31 m0 .4a.4.4 0 10.8 0 .4.4 0 10-.8 0 M31 31 m0 .4a.4.4 0 10.8 0 .4.4 0 10-.8 0 M33 31 m0 .4a.4.4 0 10.8 0 .4.4 0 10-.8 0 M34 31 m0 .4a.4.4 0 10.8 0 .4.4 0 10-.8 0 M35 31 m0 .4a.4.4 0 10.8 0 .4.4 0 10-.8 0 M36 31 m0 .4a.4.4 0 10.8 0 .4.4 0 10-.8 0 M0 32 m0 .4a.4.4 0 10.8 0 .4.4 0 10-.8 0 M33 32 m0 .4a.4.4 0 10.8 0 .4.4 0 10-.8 0 M36 32 m0 .4a.4.4 0 10.8 0 .4.4 0 10-.8 0 M38 32 m0 .4a.4.4 0 10.8 0 .4.4 0 10-.8 0 M0 33 m0 .4a.4.4 0 10.8 0 .4.4 0 10-.8 0 M2 33 m0 .4a.4.4 0 10.8 0 .4.4 0 10-.8 0 M5 33 m0 .4a.4.4 0 10.8 0 .4.4 0 10-.8 0 M7 33 m0 .4a.4.4 0 10.8 0 .4.4 0 10-.8 0 M8 33 m0 .4a.4.4 0 10.8 0 .4.4 0 10-.8 0 M9 33 m0 .4a.4.4 0 10.8 0 .4.4 0 10-.8 0 M14 33 m0 .4a.4.4 0 10.8 0 .4.4 0 10-.8 0 M16 33 m0 .4a.4.4 0 10.8 0 .4.4 0 10-.8 0 M17 33 m0 .4a.4.4 0 10.8 0 .4.4 0 10-.8 0 M18 33 m0 .4a.4.4 0 10.8 0 .4.4 0 10-.8 0 M27 33 m0 .4a.4.4 0 10.8 0 .4.4 0 10-.8 0 M28 33 m0 .4a.4.4 0 10.8 0 .4.4 0 10-.8 0 M29 33 m0 .4a.4.4 0 10.8 0 .4.4 0 10-.8 0 M33 33 m0 .4a.4.4 0 10.8 0 .4.4 0 10-.8 0 M34 33 m0 .4a.4.4 0 10.8 0 .4.4 0 10-.8 0 M0 34 m0 .4a.4.4 0 10.8 0 .4.4 0 10-.8 0 M1 34 m0 .4a.4.4 0 10.8 0 .4.4 0 10-.8 0 M3 34 m0 .4a.4.4 0 10.8 0 .4.4 0 10-.8 0 M4 34 m0 .4a.4.4 0 10.8 0 .4.4 0 10-.8 0 M5 34 m0 .4a.4.4 0 10.8 0 .4.4 0 10-.8 0 M8 34 m0 .4a.4.4 0 10.8 0 .4.4 0 10-.8 0 M10 34 m0 .4a.4.4 0 10.8 0 .4.4 0 10-.8 0 M11 34 m0 .4a.4.4 0 10.8 0 .4.4 0 10-.8 0 M14 34 m0 .4a.4.4 0 10.8 0 .4.4 0 10-.8 0 M17 34 m0 .4a.4.4 0 10.8 0 .4.4 0 10-.8 0 M18 34 m0 .4a.4.4 0 10.8 0 .4.4 0 10-.8 0 M23 34 m0 .4a.4.4 0 10.8 0 .4.4 0 10-.8 0 M24 34 m0 .4a.4.4 0 10.8 0 .4.4 0 10-.8 0 M25 34 m0 .4a.4.4 0 10.8 0 .4.4 0 10-.8 0 M27 34 m0 .4a.4.4 0 10.8 0 .4.4 0 10-.8 0 M29 34 m0 .4a.4.4 0 10.8 0 .4.4 0 10-.8 0 M31 34 m0 .4a.4.4 0 10.8 0 .4.4 0 10-.8 0 M36 34 m0 .4a.4.4 0 10.8 0 .4.4 0 10-.8 0 M37 34 m0 .4a.4.4 0 10.8 0 .4.4 0 10-.8 0 M38 34 m0 .4a.4.4 0 10.8 0 .4.4 0 10-.8 0 M2 35 m0 .4a.4.4 0 10.8 0 .4.4 0 10-.8 0 M3 35 m0 .4a.4.4 0 10.8 0 .4.4 0 10-.8 0 M5 35 m0 .4a.4.4 0 10.8 0 .4.4 0 10-.8 0 M8 35 m0 .4a.4.4 0 10.8 0 .4.4 0 10-.8 0 M12 35 m0 .4a.4.4 0 10.8 0 .4.4 0 10-.8 0 M15 35 m0 .4a.4.4 0 10.8 0 .4.4 0 10-.8 0 M16 35 m0 .4a.4.4 0 10.8 0 .4.4 0 10-.8 0 M17 35 m0 .4a.4.4 0 10.8 0 .4.4 0 10-.8 0 M18 35 m0 .4a.4.4 0 10.8 0 .4.4 0 10-.8 0 M19 35 m0 .4a.4.4 0 10.8 0 .4.4 0 10-.8 0 M20 35 m0 .4a.4.4 0 10.8 0 .4.4 0 10-.8 0 M24 35 m0 .4a.4.4 0 10.8 0 .4.4 0 10-.8 0 M26 35 m0 .4a.4.4 0 10.8 0 .4.4 0 10-.8 0 M27 35 m0 .4a.4.4 0 10.8 0 .4.4 0 10-.8 0 M31 35 m0 .4a.4.4 0 10.8 0 .4.4 0 10-.8 0 M32 35 m0 .4a.4.4 0 10.8 0 .4.4 0 10-.8 0 M34 35 m0 .4a.4.4 0 10.8 0 .4.4 0 10-.8 0 M36 35 m0 .4a.4.4 0 10.8 0 .4.4 0 10-.8 0 M2 36 m0 .4a.4.4 0 10.8 0 .4.4 0 10-.8 0 M3 36 m0 .4a.4.4 0 10.8 0 .4.4 0 10-.8 0 M4 36 m0 .4a.4.4 0 10.8 0 .4.4 0 10-.8 0 M5 36 m0 .4a.4.4 0 10.8 0 .4.4 0 10-.8 0 M7 36 m0 .4a.4.4 0 10.8 0 .4.4 0 10-.8 0 M13 36 m0 .4a.4.4 0 10.8 0 .4.4 0 10-.8 0 M15 36 m0 .4a.4.4 0 10.8 0 .4.4 0 10-.8 0 M18 36 m0 .4a.4.4 0 10.8 0 .4.4 0 10-.8 0 M20 36 m0 .4a.4.4 0 10.8 0 .4.4 0 10-.8 0 M23 36 m0 .4a.4.4 0 10.8 0 .4.4 0 10-.8 0 M25 36 m0 .4a.4.4 0 10.8 0 .4.4 0 10-.8 0 M27 36 m0 .4a.4.4 0 10.8 0 .4.4 0 10-.8 0 M28 36 m0 .4a.4.4 0 10.8 0 .4.4 0 10-.8 0 M29 36 m0 .4a.4.4 0 10.8 0 .4.4 0 10-.8 0 M30 36 m0 .4a.4.4 0 10.8 0 .4.4 0 10-.8 0 M31 36 m0 .4a.4.4 0 10.8 0 .4.4 0 10-.8 0 M32 36 m0 .4a.4.4 0 10.8 0 .4.4 0 10-.8 0 M37 36 m0 .4a.4.4 0 10.8 0 .4.4 0 10-.8 0 M2 37 m0 .4a.4.4 0 10.8 0 .4.4 0 10-.8 0 M4 37 m0 .4a.4.4 0 10.8 0 .4.4 0 10-.8 0 M5 37 m0 .4a.4.4 0 10.8 0 .4.4 0 10-.8 0 M6 37 m0 .4a.4.4 0 10.8 0 .4.4 0 10-.8 0 M10 37 m0 .4a.4.4 0 10.8 0 .4.4 0 10-.8 0 M11 37 m0 .4a.4.4 0 10.8 0 .4.4 0 10-.8 0 M14 37 m0 .4a.4.4 0 10.8 0 .4.4 0 10-.8 0 M15 37 m0 .4a.4.4 0 10.8 0 .4.4 0 10-.8 0 M16 37 m0 .4a.4.4 0 10.8 0 .4.4 0 10-.8 0 M17 37 m0 .4a.4.4 0 10.8 0 .4.4 0 10-.8 0 M18 37 m0 .4a.4.4 0 10.8 0 .4.4 0 10-.8 0 M19 37 m0 .4a.4.4 0 10.8 0 .4.4 0 10-.8 0 M20 37 m0 .4a.4.4 0 10.8 0 .4.4 0 10-.8 0 M22 37 m0 .4a.4.4 0 10.8 0 .4.4 0 10-.8 0 M23 37 m0 .4a.4.4 0 10.8 0 .4.4 0 10-.8 0 M24 37 m0 .4a.4.4 0 10.8 0 .4.4 0 10-.8 0 M25 37 m0 .4a.4.4 0 10.8 0 .4.4 0 10-.8 0 M27 37 m0 .4a.4.4 0 10.8 0 .4.4 0 10-.8 0 M28 37 m0 .4a.4.4 0 10.8 0 .4.4 0 10-.8 0 M30 37 m0 .4a.4.4 0 10.8 0 .4.4 0 10-.8 0 M31 37 m0 .4a.4.4 0 10.8 0 .4.4 0 10-.8 0 M32 37 m0 .4a.4.4 0 10.8 0 .4.4 0 10-.8 0 M34 37 m0 .4a.4.4 0 10.8 0 .4.4 0 10-.8 0 M37 37 m0 .4a.4.4 0 10.8 0 .4.4 0 10-.8 0 M38 37 m0 .4a.4.4 0 10.8 0 .4.4 0 10-.8 0 M1 38 m0 .4a.4.4 0 10.8 0 .4.4 0 10-.8 0 M2 38 m0 .4a.4.4 0 10.8 0 .4.4 0 10-.8 0 M4 38 m0 .4a.4.4 0 10.8 0 .4.4 0 10-.8 0 M5 38 m0 .4a.4.4 0 10.8 0 .4.4 0 10-.8 0 M6 38 m0 .4a.4.4 0 10.8 0 .4.4 0 10-.8 0 M7 38 m0 .4a.4.4 0 10.8 0 .4.4 0 10-.8 0 M8 38 m0 .4a.4.4 0 10.8 0 .4.4 0 10-.8 0 M11 38 m0 .4a.4.4 0 10.8 0 .4.4 0 10-.8 0 M14 38 m0 .4a.4.4 0 10.8 0 .4.4 0 10-.8 0 M16 38 m0 .4a.4.4 0 10.8 0 .4.4 0 10-.8 0 M17 38 m0 .4a.4.4 0 10.8 0 .4.4 0 10-.8 0 M21 38 m0 .4a.4.4 0 10.8 0 .4.4 0 10-.8 0 M25 38 m0 .4a.4.4 0 10.8 0 .4.4 0 10-.8 0 M27 38 m0 .4a.4.4 0 10.8 0 .4.4 0 10-.8 0 M28 38 m0 .4a.4.4 0 10.8 0 .4.4 0 10-.8 0 M30 38 m0 .4a.4.4 0 10.8 0 .4.4 0 10-.8 0 M31 38 m0 .4a.4.4 0 10.8 0 .4.4 0 10-.8 0 M32 38 m0 .4a.4.4 0 10.8 0 .4.4 0 10-.8 0 M34 38 m0 .4a.4.4 0 10.8 0 .4.4 0 10-.8 0 M36 38 m0 .4a.4.4 0 10.8 0 .4.4 0 10-.8 0"/>
      <path class="outer" fill="#840000" d="M7 7 m0 0h7.02v7.02h-7.02zm1.17 1.17v4.68h4.68v-4.68z"/>
      <path class="inner" fill="#840000" d="M7 7 m2 2h3v3h-3z"/>
      <path class="outer" fill="#840000" d="M7 25 m0 0h7.02v7.02h-7.02zm1.17 1.17v4.68h4.68v-4.68z"/>
      <path class="inner" fill="#840000" d="M7 25 m2 2h3v3h-3z"/>
      <path class="outer" fill="#840000" d="M25 7 m0 0h7.02v7.02h-7.02zm1.17 1.17v4.68h4.68v-4.68z"/>
      <path class="inner" fill="#840000" d="M25 7 m2 2h3v3h-3z"/>
    </svg>
  </defs>
  <style>.sticker-color-stroke { stroke: #840000; }</style>
  <circle class="sticker-color-stroke" r="22" cx="23" cy="23" fill="#840000" stroke="#000"/>
  <use x="0" y="0" width="46" height="46" href="#qrcode" mask="url(#circle)"/>
  <mask id="circle">
    <circle cx="23" cy="23" r="22" fill="white"/>
  </mask>
</svg>
