<svg xmlns="http://www.w3.org/2000/svg" xmlns:xlink="http://www.w3.org/1999/xlink" version="1.1" width="256" height="256" viewBox="0 0 256 256" xml:space="preserve">

<defs>
</defs>
<g style="stroke: none; stroke-width: 0; stroke-dasharray: none; stroke-linecap: butt; stroke-linejoin: miter; stroke-miterlimit: 10; fill: none; fill-rule: nonzero; opacity: 1;" transform="translate(1.4065934065934016 1.4065934065934016) scale(2.81 2.81)" >
	<path d="M 45 0 C 30.982 0 19.578 11.404 19.578 25.422 c 0 0.82 0.664 1.484 1.484 1.484 c 0.82 0 1.484 -0.664 1.484 -1.484 C 22.545 13.04 32.618 2.967 45 2.967 c 12.381 0 22.455 10.073 22.455 22.455 S 57.381 47.876 45 47.876 c -0.82 0 -1.484 0.664 -1.484 1.484 v 20.31 c 0 0.819 0.664 1.484 1.484 1.484 s 1.484 -0.664 1.484 -1.484 V 50.797 c 13.329 -0.771 23.938 -11.856 23.938 -25.375 C 70.422 11.404 59.018 0 45 0 z" style="stroke: none; stroke-width: 1; stroke-dasharray: none; stroke-linecap: butt; stroke-linejoin: miter; stroke-miterlimit: 10; fill: rgb(0,0,0); fill-rule: nonzero; opacity: 1;" transform=" matrix(1 0 0 1 0 0) " stroke-linecap="round" />
	<path d="M 45 78.661 c -3.126 0 -5.669 2.543 -5.669 5.669 S 41.874 90 45 90 s 5.669 -2.543 5.669 -5.669 S 48.126 78.661 45 78.661 z M 45 87.033 c -1.49 0 -2.702 -1.212 -2.702 -2.702 c 0 -1.49 1.212 -2.702 2.702 -2.702 c 1.49 0 2.702 1.212 2.702 2.702 C 47.702 85.821 46.49 87.033 45 87.033 z" style="stroke: none; stroke-width: 1; stroke-dasharray: none; stroke-linecap: butt; stroke-linejoin: miter; stroke-miterlimit: 10; fill: rgb(0,0,0); fill-rule: nonzero; opacity: 1;" transform=" matrix(1 0 0 1 0 0) " stroke-linecap="round" />
</g>
</svg>