<?xml version="1.0" encoding="UTF-8"?>
<svg id="Layer_2" data-name="Layer 2" xmlns="http://www.w3.org/2000/svg" viewBox="0 0 2549.12 2614.34">
  <defs>
    <style>
      .cls-1 {
        fill: #58595b;
      }

      .cls-2 {
        fill: #231f20;
      }

      .cls-3 {
        fill: #6d6e71;
      }

      .cls-4 {
        fill: #fff;
      }
    </style>
  </defs>
  <path class="cls-2" d="M1273.3,646.4l-62.24-40.65v-81.17l-108.65-71c-9.3-6.08-16.09-7.67-20.33-4.75-4.24,2.93-6.36,10.59-6.36,23.01v172.68c0,12.4,2.18,22.95,6.51,31.57,4.36,8.62,11.07,15.92,20.17,21.87l170.89,110.44v-161.99Z"/>
  <path class="cls-2" d="M1273.3,891.49l-191.67-125.25c-23.58-15.42-42.22-34.76-55.88-58.08-13.66-23.32-20.5-47.29-20.5-71.91v-247.66c0-24.62,6.85-39.66,20.5-45.12,13.66-5.45,32.29-.46,55.88,14.94l191.67,125.27v-219L861.87,0v824.35l411.44,265.64v-198.5Z"/>
  <path class="cls-4" d="M1273.3,808.39l-170.89-110.44c-9.1-5.95-15.81-13.25-20.17-21.87-4.34-8.62-6.51-19.17-6.51-31.57v-172.68c0-12.42,2.12-20.08,6.36-23.01,4.24-2.91,11.03-1.33,20.33,4.75l108.65,71v81.17l62.24,40.65v-162.72l-191.67-125.27c-23.58-15.4-42.22-20.38-55.88-14.94-13.66,5.47-20.5,20.5-20.5,45.12v247.66c0,24.62,6.85,48.59,20.5,71.91,13.66,23.32,32.29,42.66,55.88,58.08l191.67,125.25v-83.1Z"/>
  <path class="cls-3" d="M1273.3,808.39l170.89-110.44c9.1-5.95,15.81-13.25,20.17-21.87,4.34-8.62,6.51-19.17,6.51-31.57v-172.68c0-12.42-2.12-20.08-6.36-23.01-4.24-2.91-11.03-1.33-20.33,4.75l-108.65,71v81.17l-62.24,40.65v161.99Z"/>
  <path class="cls-1" d="M1273.3,264.68v219l191.67-125.27c23.58-15.4,42.22-20.38,55.88-14.94,13.66,5.47,20.5,20.5,20.5,45.12v247.66c0,24.62-6.85,48.59-20.5,71.91-13.66,23.32-32.29,42.66-55.88,58.08l-191.67,125.25v198.5l411.44-265.64V0l-411.44,264.68Z"/>
  <path class="cls-4" d="M1273.3,646.4l62.24-40.65v-81.17l108.65-71c9.3-6.08,16.09-7.67,20.33-4.75,4.24,2.93,6.36,10.59,6.36,23.01v172.68c0,12.4-2.18,22.95-6.51,31.57-4.36,8.62-11.07,15.92-20.17,21.87l-170.89,110.44v83.1l191.67-125.25c23.58-15.42,42.22-34.76,55.88-58.08,13.66-23.32,20.5-47.29,20.5-71.91v-247.66c0-24.62-6.85-39.66-20.5-45.12-13.66-5.45-32.29-.46-55.88,14.94l-191.67,125.27v162.72Z"/>
  <g>
    <path class="cls-2" d="M1143.98,2509.67c-13.82-7.19-23.25-14.39-28.29-21.59-5.04-7.2-7.56-15.6-7.56-25.2,0-14.39,6.16-26.27,18.48-35.64,12.32-9.35,27.65-14.04,46.01-14.04,16.56,0,30.25,3.75,41.07,11.23,10.83,7.48,16.24,17.18,16.24,29.08,0,17.76-12.62,33.98-37.86,48.66,19.19,9.32,31.91,18.17,38.15,26.56,6.24,8.4,9.36,18.41,9.36,30.02,0,16.03-7.19,29.29-21.58,39.8-14.39,10.51-31.57,15.77-51.53,15.77s-36.46-4.49-49.18-13.46c-12.73-8.97-19.09-20.89-19.09-35.77,0-22.36,15.26-40.84,45.78-55.44ZM1156.64,2515c-18.8,11.23-28.21,26.77-28.21,46.65,0,12.57,3.6,22.57,10.8,30.01,7.2,7.44,17.09,11.16,29.66,11.16,11.46,0,21.08-3.33,28.83-10,7.75-6.67,11.63-15.33,11.63-25.99s-3.53-18.93-10.59-26.27c-7.07-7.35-21.1-15.86-42.11-25.55ZM1179.13,2496.71c13.72-11.04,20.57-23.99,20.57-38.87,0-10.66-2.76-18.88-8.28-24.69-5.52-5.81-12.81-8.72-21.87-8.72s-16.63,2.64-22.45,7.92c-5.82,5.28-8.73,12.48-8.73,21.6s3.15,16.7,9.44,22.75c6.3,6.04,16.74,12.72,31.31,20.01Z"/>
    <path class="cls-2" d="M1584.17,2420.26c-29.94,5.95-52.36,16.39-67.28,31.31-14.92,14.92-24.56,33.28-28.92,55.07l.29.15c11.72-12.67,26.93-19.01,45.63-19.01,17.34,0,31.94,5.76,43.81,17.28,11.87,11.51,17.8,26.15,17.8,43.91,0,18.81-6.5,34.4-19.48,46.78-12.98,12.39-29.11,18.58-48.39,18.58-21.31,0-38.56-7.63-51.74-22.89-13.18-15.26-19.76-34.94-19.76-59.03,0-29.56,10.27-55.72,30.81-78.46,20.54-22.75,52.27-37.39,95.19-43.91l2.03,10.22ZM1565.28,2557.33c0-16.8-3.9-30.45-11.69-40.96-7.79-10.51-17.74-15.77-29.86-15.77-11.06,0-20.05,3.92-26.97,11.74-6.92,7.82-10.38,18.45-10.38,31.89,0,16.41,4.04,30.47,12.12,42.18,8.08,11.71,18.36,17.57,30.87,17.57,10.86,0,19.56-4.49,26.1-13.46,6.54-8.97,9.81-20.04,9.81-33.18Z"/>
    <path class="cls-2" d="M1010.73,2594.65c-2.59-.96-3.94-3.41-4.03-7.37v-167.44l-1.7-1.42c-17.7,4.5-33.95,8.62-51.38,12.42v10.2l25.59,3.55c.38,21.12.58,45.38.58,72.78v33.94c0,13.49-.1,25.75-.29,36.79-.1,3.41-1.39,5.59-3.89,6.55l-21.99,7.85v8.69h80.01s0-8.16,0-8.16l-22.89-8.38Z"/>
    <path class="cls-2" d="M1423.95,2416.97h-129.92v52.94h6.97l8.35-29.36h92l-82.69,170.64h29.71c2.32-7.49,4.94-15.47,7.99-24.14,3.41-9.69,7.12-19.85,11.16-30.47,4.03-10.63,8.35-21.55,12.96-32.77,4.6-11.22,9.33-22.54,14.18-33.96,4.85-11.42,9.79-22.72,14.83-33.89,5.04-11.17,10.05-22.04,15.05-32.63l-.58-6.37Z"/>
  </g>
  <g>
    <path class="cls-2" d="M490.52,1392.48h-34l-48.17-118.55c-22.22-7.03-46.27-10.57-72.14-10.57-62.15,0-110.25,23.28-144.26,69.83-34.04,46.55-51.06,107.5-51.06,182.87,0,80.42,20.05,144.55,60.13,192.36,40.06,47.83,95.69,71.73,166.84,71.73,39.65,0,81.41-8.02,125.29-24.05l5.46,24.05c-56.23,38.25-119.81,57.36-190.67,57.36-91.95,0-166.29-27.71-222.95-83.12C28.33,1699.01,0,1626.02,0,1535.46c0-96.46,31.08-172.81,93.23-229.07,62.15-56.26,143.28-84.37,243.41-84.37,49.49,0,100.11,5.78,151.87,17.31l2.01,4.21v148.93Z"/>
    <path class="cls-2" d="M796.46,1789.01c-35.7,30.09-73.54,45.13-113.47,45.13s-71.28-9.77-96.6-29.32c-25.3-19.55-37.96-47.04-37.96-82.47,0-44.17,20.46-76.5,61.38-97.03,40.92-20.53,102.28-30.79,184.13-30.79l.43-31.65c.26-30.09-6.96-52.24-21.74-66.44-14.76-14.2-37.74-21.3-68.97-21.3-28.96,0-63.69,6.33-104.21,18.99l-11.8-33.75c59.89-27.27,117.54-40.92,172.96-40.92,50.62,0,88.51,11.31,113.69,33.94,25.16,22.65,37.6,55.2,37.34,97.66l-2.12,175.51c-.55,14.35-.29,23.1.84,31.81,1.13,8.71,5.06,19.01,13.62,26.78,12.11,10.99,27.4,13.6,47.14,17.55v20.58h-102.55c-28.01,0-61.75-13.5-72.12-34.28ZM793.94,1634.59c-44.15,0-75.66,5.63-94.48,16.87-18.85,11.27-28.26,30.52-28.26,57.8,0,24.77,6.67,42.41,20.03,52.96,13.36,10.54,29.18,15.82,47.47,15.82,20.8,0,38.95-5.34,54.4-16.03l.84-127.41Z"/>
    <polygon class="cls-2" points="1805.63 1299.11 1805.63 1391.67 1925.43 1314.58 1925.43 1222.02 1805.63 1299.11"/>
    <path class="cls-2" d="M1805.05,1483.66v236.99c0,25.9-.29,44.32-.84,55.27-.58,6.76-4.09,10.98-10.54,12.66l-52.21,14.76v20.27h248.15v-20.27l-53.37-14.76c-6.47-1.97-9.99-6.74-10.54-14.35-.55-13.21-.84-36.54-.84-70.03v-297.63l-119.81,77.09Z"/>
    <path class="cls-2" d="M1195.05,1775.92c-.58-10.95-.84-29.37-.84-55.27v-576.12l-119.81,77.09v482.59c0,33.48-.29,56.81-.84,70.02-.58,7.61-4.09,12.37-10.57,14.35l-53.36,14.76v20.27h249v-20.27l-53.04-14.76c-6.48-1.68-9.99-5.9-10.54-12.66Z"/>
    <path class="cls-2" d="M2497.45,1788.58c-7.03-1.97-10.69-6.74-10.98-14.35-.55-16.87-.84-42.87-.84-78.04v-148.07c0-41.07-11.67-72.77-35-95.13-23.35-22.36-55.56-33.53-96.62-33.53-46.39,0-93.37,15.74-140.89,47.23v-37.53h-183.19v20.27l1.79.49,51.46,14.26c5.79,1.58,8.9,5.46,9.51,11.48.04.42.18.75.2,1.19.29,17.9.43,35.13.43,51.65v195.54c0,16.59-.14,33.89-.43,51.87-.26,6.77-3.51,10.98-9.7,12.66l-53.25,14.76v20.27h238.03v-20.27l-44.3-13.48c-6.19-1.71-9.41-6.33-9.7-13.94-.55-29.25-.84-61.43-.84-96.6v-181.4c24.75-13.48,48.79-20.24,72.14-20.24,26.72,0,46.82,7.53,60.32,22.58,13.5,15.04,20.24,39.86,20.24,74.45v176.76c0,13.51-.14,22.36-.41,26.58-.58,6.47-4.09,10.69-10.57,12.66l-41.33,12.64v20.27h235.6v-20.27l-51.67-14.76Z"/>
    <path class="cls-2" d="M1577.22,1429.16v20.24l44.92,12.66c-21.64,58.49-43.71,116-66.22,172.52-7.03,17.16-14.06,35.46-21.09,54.86-6.76-19.98-13.36-38.25-19.84-54.86-24.46-62.42-45.71-119.93-63.69-172.52l43.87-12.66v-20.24h-227.8v20.24l42.17,11.82c7.87,2.82,14.06,9.12,18.58,18.97l138.74,343.4h58.43c14.89-37.59,36.85-91.37,65.84-161.37,29.68-71.56,55.49-132.95,77.42-184.12,3.95-8.71,9.41-14.2,16.47-16.47l44.5-12.23v-20.24h-152.29Z"/>
  </g>
  <g>
    <path class="cls-2" d="M278.94,2126.72v-110.5h33.71v109.14c0,35.65,18.38,54.56,48.53,54.56s48.27-17.82,48.27-53.19v-110.5h33.74v108.86c0,57.31-32.35,86.1-82.54,86.1s-81.71-28.79-81.71-84.46Z"/>
    <path class="cls-2" d="M521.02,2016.22h31.25l102.84,132.71v-132.71h33.18v191.94h-28.26l-105.83-136.56v136.56h-33.18v-191.94Z"/>
    <path class="cls-2" d="M771.04,2016.22h33.74v191.94h-33.74v-191.94Z"/>
    <path class="cls-2" d="M871.1,2016.22h37.29l57.86,147.52,57.59-147.52h36.49l-79.54,193.32h-30.16l-79.52-193.32Z"/>
    <path class="cls-2" d="M1124.73,2016.22h142.32v30.17h-108.6v49.9h96.26v30.44h-96.26v51.28h109.97v30.16h-143.68v-191.94Z"/>
    <path class="cls-2" d="M1339.94,2016.22h85.55c24.12,0,43.06,7.13,55.4,19.19,10.15,10.42,15.89,24.68,15.89,41.41v.55c0,31.53-18.91,50.44-45.52,58.12l51.82,72.67h-40.04l-47.15-66.91h-42.23v66.91h-33.74v-191.94ZM1423.03,2111.36c24.12,0,39.48-12.61,39.48-32.08v-.55c0-20.57-14.8-31.8-39.77-31.8h-49.07v64.43h49.36Z"/>
    <path class="cls-2" d="M1556.81,2180.2l20.28-24.13c18.38,15.91,37.02,24.95,60.61,24.95,20.83,0,34-9.87,34-24.12v-.55c0-13.72-7.67-21.11-43.32-29.34-40.87-9.87-63.89-21.94-63.89-57.31v-.55c0-32.91,27.43-55.67,65.55-55.67,27.97,0,50.16,8.49,69.64,24.13l-18.08,25.5c-17.28-12.89-34.56-19.74-52.11-19.74-19.74,0-31.25,10.14-31.25,22.76v.55c0,14.81,8.76,21.38,45.78,30.16,40.57,9.87,61.43,24.41,61.43,56.21v.55c0,35.93-28.26,57.31-68.57,57.31-29.33,0-57.03-10.14-80.05-30.7Z"/>
    <path class="cls-2" d="M1778.62,2016.22h33.71v191.94h-33.71v-191.94Z"/>
    <path class="cls-2" d="M1942.01,2047.48h-61.14v-31.26h156.02v31.26h-61.14v160.68h-33.74v-160.68Z"/>
    <path class="cls-2" d="M2159.95,2132.48l-76.21-116.26h40.01l53.47,84.73,54.3-84.73h38.65l-76.23,115.44v76.5h-34v-75.68Z"/>
  </g>
</svg>