<?xml version="1.0" encoding="UTF-8"?>
<svg id="Layer_2" data-name="Layer 2" xmlns="http://www.w3.org/2000/svg" viewBox="0 0 1405.93 387.38">
  <defs>
    <style>
      .cls-1 {
        fill: #231f20;
      }

      .cls-2 {
        fill: #fff;
      }

      .cls-3 {
        fill: #f2cd14;
      }

      .cls-4 {
        fill: #8c2232;
      }

      .cls-5 {
        fill: #c32032;
      }
    </style>
  </defs>
  <g>
    <path class="cls-4" d="M1010.2,207.93l-20.02-13.08v-26.11l-34.95-22.84c-2.99-1.96-5.18-2.47-6.54-1.53-1.36.94-2.04,3.41-2.04,7.4v55.54c0,3.99.7,7.38,2.1,10.15,1.4,2.77,3.56,5.12,6.49,7.03l54.97,35.53v-52.11Z"/>
    <path class="cls-4" d="M1010.2,286.76l-61.65-40.29c-7.59-4.96-13.58-11.18-17.97-18.68s-6.6-15.21-6.6-23.13v-79.66c0-7.92,2.2-12.76,6.6-14.51,4.39-1.75,10.39-.15,17.97,4.8l61.65,40.3v-70.44L877.85,0v265.17l132.35,85.45v-63.85Z"/>
    <path class="cls-3" d="M1010.2,260.03l-54.97-35.53c-2.93-1.91-5.09-4.26-6.49-7.03-1.39-2.77-2.1-6.17-2.1-10.15v-55.54c0-3.99.68-6.46,2.04-7.4,1.36-.94,3.55-.43,6.54,1.53l34.95,22.84v26.11l20.02,13.08v-52.34l-61.65-40.3c-7.59-4.95-13.58-6.56-17.97-4.8-4.39,1.76-6.6,6.59-6.6,14.51v79.66c0,7.92,2.2,15.63,6.6,23.13s10.39,13.72,17.97,18.68l61.65,40.29v-26.73Z"/>
    <path class="cls-5" d="M1010.2,260.03l54.97-35.53c2.93-1.91,5.09-4.26,6.49-7.03,1.39-2.77,2.1-6.17,2.1-10.15v-55.54c0-3.99-.68-6.46-2.04-7.4-1.36-.94-3.55-.43-6.54,1.53l-34.95,22.84v26.11l-20.02,13.08v52.11Z"/>
    <path class="cls-5" d="M1010.2,85.14v70.44l61.65-40.3c7.59-4.95,13.58-6.56,17.97-4.8,4.39,1.76,6.6,6.59,6.6,14.51v79.66c0,7.92-2.2,15.63-6.6,23.13-4.39,7.5-10.39,13.72-17.97,18.68l-61.65,40.29v63.85l132.35-85.45V0l-132.35,85.14Z"/>
    <path class="cls-2" d="M1010.2,207.93l20.02-13.08v-26.11l34.95-22.84c2.99-1.96,5.18-2.47,6.54-1.53,1.36.94,2.04,3.41,2.04,7.4v55.54c0,3.99-.7,7.38-2.1,10.15-1.4,2.77-3.56,5.12-6.49,7.03l-54.97,35.53v26.73l61.65-40.29c7.59-4.96,13.58-11.18,17.97-18.68,4.39-7.5,6.6-15.21,6.6-23.13v-79.66c0-7.92-2.2-12.76-6.6-14.51-4.39-1.75-10.39-.15-17.97,4.8l-61.65,40.3v52.34Z"/>
  </g>
  <path class="cls-4" d="M1262.91,233.08c-4.38-2.28-7.37-4.56-8.96-6.84-1.6-2.28-2.39-4.94-2.39-7.98,0-4.56,1.95-8.32,5.85-11.29,3.9-2.96,8.76-4.45,14.57-4.45,5.25,0,9.58,1.19,13.01,3.56,3.43,2.37,5.14,5.44,5.14,9.21,0,5.63-4,10.76-11.99,15.41,6.08,2.95,10.11,5.76,12.09,8.41,1.98,2.66,2.96,5.83,2.96,9.51,0,5.08-2.28,9.28-6.84,12.61-4.56,3.33-10,5-16.32,5s-11.55-1.42-15.58-4.27c-4.03-2.84-6.05-6.62-6.05-11.33,0-7.08,4.83-12.94,14.5-17.56ZM1266.92,234.77c-5.96,3.56-8.93,8.48-8.93,14.78,0,3.98,1.14,7.15,3.42,9.51,2.28,2.36,5.41,3.53,9.39,3.53,3.63,0,6.68-1.05,9.13-3.17,2.46-2.11,3.68-4.86,3.68-8.23s-1.12-6-3.36-8.32c-2.24-2.33-6.68-5.02-13.34-8.09ZM1274.04,228.98c4.34-3.5,6.52-7.6,6.52-12.31,0-3.38-.87-5.98-2.62-7.82-1.75-1.84-4.06-2.76-6.93-2.76s-5.27.84-7.11,2.51c-1.84,1.67-2.77,3.95-2.77,6.84s1,5.29,2.99,7.2c2,1.91,5.3,4.03,9.92,6.34Z"/>
  <path class="cls-4" d="M1402.34,204.76c-9.48,1.89-16.59,5.19-21.31,9.92-4.73,4.73-7.78,10.54-9.16,17.44l.09.05c3.71-4.01,8.53-6.02,14.45-6.02,5.49,0,10.12,1.83,13.88,5.47,3.76,3.65,5.64,8.28,5.64,13.91,0,5.96-2.06,10.9-6.17,14.82-4.11,3.92-9.22,5.89-15.33,5.89-6.75,0-12.21-2.42-16.39-7.25-4.17-4.83-6.26-11.07-6.26-18.7,0-9.36,3.25-17.65,9.76-24.85,6.51-7.21,16.56-11.84,30.15-13.91l.64,3.24ZM1396.36,248.18c0-5.32-1.23-9.64-3.7-12.97-2.47-3.33-5.62-5-9.46-5-3.5,0-6.35,1.24-8.54,3.72s-3.29,5.84-3.29,10.1c0,5.2,1.28,9.65,3.84,13.36,2.56,3.71,5.82,5.56,9.78,5.56,3.44,0,6.2-1.42,8.27-4.27,2.07-2.84,3.11-6.35,3.11-10.51Z"/>
  <path class="cls-4" d="M1220.7,260c-.82-.3-1.25-1.08-1.28-2.33v-53.04l-.54-.45c-5.61,1.42-10.75,2.73-16.28,3.94v3.23l8.1,1.12c.12,6.69.18,14.38.18,23.05v10.75c0,4.27-.03,8.16-.09,11.65-.03,1.08-.44,1.77-1.23,2.07l-6.97,2.49v2.75h25.34s0-2.58,0-2.58l-7.25-2.65Z"/>
  <path class="cls-4" d="M1351.59,203.72h-41.15v16.77h2.21l2.64-9.3h29.14l-26.19,54.05h9.41c.73-2.37,1.56-4.9,2.53-7.65,1.08-3.07,2.26-6.29,3.53-9.65,1.28-3.37,2.65-6.83,4.1-10.38,1.46-3.55,2.96-7.14,4.49-10.76,1.53-3.62,3.1-7.2,4.7-10.73,1.6-3.54,3.18-6.98,4.77-10.33l-.18-2.02Z"/>
  <g>
    <path class="cls-1" d="M157.31,126.98h-10.9l-15.45-38.02c-7.13-2.25-14.84-3.39-23.14-3.39-19.93,0-35.36,7.47-46.27,22.4-10.92,14.93-16.37,34.48-16.37,58.65,0,25.79,6.43,46.36,19.28,61.69,12.85,15.34,30.69,23.01,53.51,23.01,12.71,0,26.11-2.57,40.18-7.71l1.75,7.71c-18.03,12.27-38.42,18.4-61.15,18.4-29.49,0-53.33-8.89-71.5-26.66C9.09,225.28,0,201.88,0,172.83c0-30.93,9.97-55.42,29.9-73.46,19.93-18.04,45.95-27.06,78.06-27.06,15.87,0,32.11,1.85,48.71,5.55l.64,1.35v47.76Z"/>
    <path class="cls-1" d="M255.43,254.15c-11.45,9.65-23.58,14.47-36.39,14.47s-22.86-3.13-30.98-9.4c-8.11-6.27-12.17-15.08-12.17-26.45,0-14.17,6.56-24.53,19.69-31.12,13.12-6.59,32.8-9.87,59.05-9.87l.14-10.15c.08-9.65-2.23-16.75-6.97-21.31-4.73-4.55-12.1-6.83-22.12-6.83-9.29,0-20.43,2.03-33.42,6.09l-3.78-10.82c19.21-8.75,37.7-13.12,55.47-13.12,16.24,0,28.39,3.63,36.46,10.89,8.07,7.26,12.06,17.7,11.97,31.32l-.68,56.29c-.18,4.6-.09,7.41.27,10.2.36,2.79,1.62,6.1,4.37,8.59,3.88,3.52,8.79,4.36,15.12,5.63v6.6h-32.89c-8.98,0-19.8-4.33-23.13-10.99ZM254.62,204.63c-14.16,0-24.26,1.81-30.3,5.41-6.04,3.61-9.06,9.79-9.06,18.54,0,7.94,2.14,13.6,6.42,16.98,4.28,3.38,9.36,5.07,15.22,5.07,6.67,0,12.49-1.71,17.45-5.14l.27-40.86Z"/>
    <polygon class="cls-1" points="579.08 97.04 579.08 126.72 617.5 102 617.5 72.31 579.08 97.04"/>
    <path class="cls-1" d="M578.89,156.22v76c0,8.31-.09,14.21-.27,17.73-.19,2.17-1.31,3.52-3.38,4.06l-16.74,4.73v6.5h79.58v-6.5l-17.12-4.73c-2.08-.63-3.2-2.16-3.38-4.6-.18-4.24-.27-11.72-.27-22.46v-95.45l-38.42,24.72Z"/>
    <path class="cls-1" d="M383.26,249.95c-.18-3.51-.27-9.42-.27-17.73V47.46l-38.42,24.72v154.77c0,10.74-.09,18.22-.27,22.46-.19,2.44-1.31,3.97-3.39,4.6l-17.11,4.73v6.5h79.86v-6.5l-17.01-4.73c-2.08-.54-3.2-1.89-3.38-4.06Z"/>
    <path class="cls-1" d="M800.95,254.01c-2.25-.63-3.43-2.16-3.52-4.6-.18-5.41-.27-13.75-.27-25.03v-47.49c0-13.17-3.74-23.34-11.22-30.51-7.49-7.17-17.82-10.75-30.99-10.75-14.88,0-29.95,5.05-45.19,15.15v-12.04h-58.75v6.5l.57.16,16.5,4.57c1.86.51,2.85,1.75,3.05,3.68.01.13.06.24.06.38.09,5.74.14,11.27.14,16.56v62.71c0,5.32-.05,10.87-.14,16.64-.08,2.17-1.13,3.52-3.11,4.06l-17.08,4.73v6.5h76.34v-6.5l-14.21-4.32c-1.98-.55-3.02-2.03-3.11-4.47-.18-9.38-.27-19.7-.27-30.98v-58.18c7.94-4.32,15.65-6.49,23.14-6.49,8.57,0,15.02,2.42,19.35,7.24,4.33,4.82,6.49,12.78,6.49,23.88v56.69c0,4.33-.05,7.17-.13,8.52-.19,2.08-1.31,3.43-3.39,4.06l-13.26,4.05v6.5h75.56v-6.5l-16.57-4.73Z"/>
    <path class="cls-1" d="M505.82,138.74v6.49l14.41,4.06c-6.94,18.76-14.02,37.2-21.24,55.33-2.25,5.5-4.51,11.37-6.76,17.59-2.17-6.41-4.28-12.27-6.36-17.59-7.84-20.02-14.66-38.46-20.43-55.33l14.07-4.06v-6.49h-73.06v6.49l13.53,3.79c2.52.9,4.51,2.93,5.96,6.08l44.49,110.13h18.74c4.78-12.06,11.82-29.3,21.12-51.75,9.52-22.95,17.79-42.64,24.83-59.05,1.27-2.79,3.02-4.55,5.28-5.28l14.27-3.92v-6.49h-48.84Z"/>
  </g>
  <g>
    <path class="cls-1" d="M177.51,360.27v-35.47h10.82v35.03c0,11.45,5.9,17.52,15.58,17.52s15.49-5.72,15.49-17.08v-35.47h10.82v34.95c0,18.4-10.38,27.63-26.49,27.63s-26.23-9.23-26.23-27.11Z"/>
    <path class="cls-1" d="M255.39,324.8h10.03l33.01,42.6v-42.6h10.65v61.61h-9.07l-33.97-43.83v43.83h-10.65v-61.61Z"/>
    <path class="cls-1" d="M335.82,324.8h10.82v61.61h-10.82v-61.61Z"/>
    <path class="cls-1" d="M368.11,324.8h11.97l18.57,47.36,18.48-47.36h11.71l-25.53,62.05h-9.68l-25.52-62.05Z"/>
    <path class="cls-1" d="M449.69,324.8h45.68v9.69h-34.86v16.02h30.89v9.77h-30.89v16.47h35.29v9.67h-46.12v-61.61Z"/>
    <path class="cls-1" d="M518.95,324.8h27.46c7.74,0,13.82,2.3,17.78,6.16,3.26,3.34,5.11,7.92,5.11,13.29v.18c0,10.12-6.07,16.2-14.61,18.66l16.63,23.32h-12.85l-15.14-21.47h-13.55v21.47h-10.82v-61.61ZM545.61,355.35c7.75,0,12.67-4.05,12.67-10.3v-.18c0-6.6-4.75-10.21-12.76-10.21h-15.75v20.69h15.84Z"/>
    <path class="cls-1" d="M588.73,377.44l6.51-7.75c5.9,5.11,11.88,8.01,19.45,8.01,6.69,0,10.91-3.16,10.91-7.74v-.17c0-4.41-2.46-6.78-13.91-9.42-13.11-3.17-20.5-7.05-20.5-18.39v-.18c0-10.56,8.8-17.87,21.04-17.87,8.98,0,16.11,2.73,22.36,7.75l-5.81,8.18c-5.55-4.13-11.09-6.34-16.72-6.34-6.34,0-10.04,3.25-10.04,7.3v.18c0,4.75,2.82,6.86,14.7,9.67,13.02,3.17,19.71,7.84,19.71,18.05v.17c0,11.53-9.07,18.4-22,18.4-9.42,0-18.31-3.26-25.7-9.85Z"/>
    <path class="cls-1" d="M660.1,324.8h10.82v61.61h-10.82v-61.61Z"/>
    <path class="cls-1" d="M712.72,334.84h-19.63v-10.04h50.08v10.04h-19.62v51.57h-10.82v-51.57Z"/>
    <path class="cls-1" d="M782.86,362.12l-24.47-37.32h12.85l17.16,27.2,17.42-27.2h12.41l-24.47,37.06v24.55h-10.91v-24.29Z"/>
  </g>
</svg>