<?xml version="1.0" encoding="UTF-8"?>
<svg id="Layer_2" data-name="Layer 2" xmlns="http://www.w3.org/2000/svg" viewBox="0 0 1914.6 1962.95">
  <defs>
    <style>
      .cls-1 {
        fill: #c10230;
      }

      .cls-2 {
        fill: #231f20;
      }

      .cls-3 {
        fill: #8a2432;
      }

      .cls-4 {
        fill: #fff;
      }

      .cls-5 {
        fill: #f2cd00;
      }
    </style>
  </defs>
  <g>
    <path class="cls-3" d="M957.3,485.17l-46.71-30.51v-60.92l-81.55-53.29c-6.98-4.57-12.08-5.75-15.26-3.57-3.18,2.2-4.77,7.95-4.77,17.27v129.6c0,9.31,1.63,17.22,4.89,23.69,3.27,6.47,8.31,11.95,15.14,16.41l128.27,82.9v-121.58Z"/>
    <path class="cls-3" d="M957.3,669.12l-143.86-94.01c-17.7-11.57-31.69-26.09-41.94-43.59s-15.39-35.49-15.39-53.97v-185.88c0-18.48,5.14-29.77,15.39-33.87,10.25-4.09,24.24-.35,41.94,11.21l143.86,94.02v-164.37L648.49,0v618.73l308.81,199.38v-148.99Z"/>
    <path class="cls-5" d="M957.3,606.75l-128.27-82.9c-6.83-4.47-11.87-9.94-15.14-16.41-3.25-6.47-4.89-14.39-4.89-23.69v-129.6c0-9.32,1.59-15.07,4.77-17.27,3.18-2.19,8.28-1,15.26,3.57l81.55,53.29v60.92l46.71,30.51v-122.13l-143.86-94.02c-17.7-11.56-31.69-15.3-41.94-11.21-10.25,4.1-15.39,15.39-15.39,33.87v185.88c0,18.48,5.14,36.47,15.39,53.97s24.24,32.02,41.94,43.59l143.86,94.01v-62.37Z"/>
    <path class="cls-1" d="M957.3,606.75l128.27-82.9c6.83-4.47,11.87-9.94,15.14-16.41,3.25-6.47,4.89-14.39,4.89-23.69v-129.6c0-9.32-1.59-15.07-4.77-17.27-3.18-2.19-8.28-1-15.26,3.57l-81.55,53.29v60.92l-46.71,30.51v121.58Z"/>
    <path class="cls-1" d="M957.3,198.66v164.37l143.86-94.02c17.7-11.56,31.69-15.3,41.94-11.21,10.25,4.1,15.39,15.39,15.39,33.87v185.88c0,18.48-5.14,36.47-15.39,53.97-10.25,17.5-24.24,32.02-41.94,43.59l-143.86,94.01v148.99l308.81-199.38V0l-308.81,198.66Z"/>
    <path class="cls-4" d="M957.3,485.17l46.71-30.51v-60.92l81.55-53.29c6.98-4.57,12.08-5.75,15.26-3.57,3.18,2.2,4.77,7.95,4.77,17.27v129.6c0,9.31-1.63,17.22-4.89,23.69-3.27,6.47-8.31,11.95-15.14,16.41l-128.27,82.9v62.37l143.86-94.01c17.7-11.57,31.69-26.09,41.94-43.59,10.25-17.5,15.39-35.49,15.39-53.97v-185.88c0-18.48-5.14-29.77-15.39-33.87-10.25-4.09-24.24-.35-41.94,11.21l-143.86,94.02v122.13Z"/>
  </g>
  <g>
    <path class="cls-3" d="M859.23,1884.33c-10.38-5.4-17.46-10.81-21.25-16.21-3.78-5.41-5.68-11.72-5.68-18.93,0-10.81,4.63-19.73,13.88-26.77,9.25-7.03,20.77-10.54,34.56-10.54,12.44,0,22.72,2.81,30.85,8.44,8.13,5.62,12.19,12.91,12.19,21.84,0,13.34-9.48,25.52-28.44,36.55,14.42,7,23.97,13.65,28.66,19.95,4.69,6.31,7.03,13.82,7.03,22.55,0,12.04-5.4,22-16.21,29.89-10.81,7.89-23.71,11.85-38.7,11.85s-27.39-3.37-36.94-10.11c-9.56-6.74-14.33-15.69-14.33-26.87,0-16.8,11.46-30.68,34.39-41.64ZM868.73,1888.34c-14.12,8.44-21.18,20.11-21.18,35.04,0,9.44,2.7,16.95,8.11,22.54,5.41,5.59,12.83,8.38,22.27,8.38,8.61,0,15.83-2.5,21.65-7.51,5.82-5.01,8.73-11.52,8.73-19.52s-2.65-14.22-7.96-19.73c-5.31-5.52-15.85-11.91-31.63-19.19ZM885.62,1874.6c10.3-8.29,15.45-18.02,15.45-29.2,0-8-2.07-14.18-6.22-18.54-4.15-4.36-9.62-6.55-16.43-6.55s-12.49,1.99-16.86,5.95c-4.37,3.96-6.56,9.37-6.56,16.22s2.36,12.54,7.09,17.08c4.73,4.54,12.57,9.55,23.52,15.03Z"/>
    <path class="cls-3" d="M1189.85,1817.18c-22.49,4.47-39.33,12.31-50.54,23.52-11.21,11.21-18.45,25-21.72,41.36l.22.11c8.8-9.52,20.23-14.28,34.27-14.28,13.02,0,23.99,4.33,32.91,12.98,8.91,8.65,13.37,19.64,13.37,32.98,0,14.13-4.88,25.84-14.63,35.14-9.75,9.31-21.86,13.95-36.34,13.95-16.01,0-28.96-5.73-38.86-17.19-9.9-11.46-14.84-26.24-14.84-44.34,0-22.21,7.71-41.85,23.14-58.93,15.43-17.09,39.26-28.08,71.49-32.98l1.53,7.68ZM1175.65,1920.13c0-12.62-2.93-22.87-8.78-30.76-5.85-7.89-13.32-11.85-22.42-11.85-8.31,0-15.06,2.94-20.26,8.82-5.2,5.87-7.8,13.86-7.8,23.95,0,12.32,3.03,22.88,9.1,31.68,6.07,8.79,13.79,13.19,23.18,13.19,8.16,0,14.69-3.37,19.61-10.11,4.91-6.74,7.37-15.05,7.37-24.92Z"/>
    <path class="cls-3" d="M759.14,1948.16c-1.95-.72-2.96-2.56-3.03-5.53v-125.76l-1.28-1.07c-13.29,3.38-25.5,6.47-38.59,9.33v7.66l19.22,2.66c.29,15.87.43,34.09.43,54.66v25.49c0,10.13-.07,19.34-.22,27.63-.08,2.56-1.05,4.2-2.92,4.92l-16.52,5.9v6.52h60.09s0-6.13,0-6.13l-17.19-6.29Z"/>
    <path class="cls-3" d="M1069.51,1814.71h-97.58v39.76h5.24l6.27-22.06h69.1l-62.11,128.17h22.32c1.74-5.62,3.71-11.62,6-18.13,2.56-7.28,5.35-14.91,8.38-22.88,3.03-7.98,6.27-16.19,9.73-24.62,3.46-8.43,7.01-16.93,10.65-25.51,3.64-8.58,7.35-17.06,11.14-25.45,3.78-8.39,7.55-16.56,11.3-24.51l-.44-4.79Z"/>
  </g>
  <g>
    <path d="M368.42,1045.23h-25.53l-36.18-89.04c-16.69-5.28-34.75-7.94-54.19-7.94-46.68,0-82.81,17.48-108.35,52.45-25.57,34.97-38.35,80.74-38.35,137.35,0,60.41,15.06,108.57,45.16,144.48,30.08,35.92,71.87,53.88,125.31,53.88,29.78,0,61.15-6.02,94.11-18.06l4.1,18.06c-42.23,28.73-89.98,43.08-143.21,43.08-69.07,0-124.9-20.81-167.46-62.43C21.28,1275.46,0,1220.64,0,1152.62c0-72.45,23.34-129.8,70.02-172.05,46.68-42.25,107.61-63.37,182.82-63.37,37.17,0,75.19,4.34,114.07,13l1.51,3.16v111.86Z"/>
    <path d="M598.21,1343.06c-26.81,22.6-55.23,33.9-85.23,33.9s-53.53-7.34-72.55-22.02c-19-14.68-28.51-35.33-28.51-61.94,0-33.18,15.37-57.46,46.1-72.88,30.74-15.42,76.82-23.12,138.29-23.12l.33-23.78c.2-22.6-5.23-39.23-16.33-49.9-11.08-10.67-28.35-16-51.8-16-21.75,0-47.84,4.76-78.27,14.27l-8.86-25.35c44.98-20.48,88.28-30.74,129.9-30.74,38.02,0,66.48,8.5,85.39,25.49,18.89,17.01,28.24,41.46,28.04,73.35l-1.59,131.82c-.42,10.78-.22,17.35.63,23.9.85,6.54,3.8,14.28,10.23,20.11,9.1,8.25,20.58,10.22,35.41,13.18v15.46h-77.02c-21.04,0-46.38-10.14-54.17-25.75ZM596.31,1227.08c-33.16,0-56.83,4.23-70.96,12.67-14.16,8.46-21.23,22.93-21.23,43.41,0,18.6,5.01,31.86,15.04,39.78,10.03,7.92,21.91,11.88,35.65,11.88,15.62,0,29.25-4.01,40.86-12.04l.63-95.7Z"/>
    <polygon points="1356.17 975.11 1356.17 1044.62 1446.16 986.72 1446.16 917.21 1356.17 975.11"/>
    <path d="M1355.74,1113.72v178c0,19.45-.22,33.29-.63,41.51-.43,5.08-3.07,8.24-7.92,9.51l-39.21,11.08v15.22h186.38v-15.22l-40.08-11.08c-4.86-1.48-7.5-5.06-7.92-10.78-.42-9.92-.63-27.45-.63-52.59v-223.55l-89.98,57.9Z"/>
    <path d="M897.58,1333.22c-.43-8.23-.63-22.06-.63-41.51v-432.71l-89.98,57.9v362.46c0,25.15-.22,42.67-.63,52.59-.43,5.71-3.07,9.29-7.94,10.78l-40.07,11.08v15.22h187.02v-15.22l-39.84-11.08c-4.86-1.27-7.5-4.43-7.92-9.51Z"/>
    <path d="M1875.79,1342.73c-5.28-1.48-8.03-5.06-8.24-10.78-.42-12.67-.63-32.2-.63-58.61v-111.21c0-30.84-8.77-54.66-26.29-71.45-17.54-16.8-41.73-25.19-72.57-25.19-34.84,0-70.13,11.82-105.82,35.47v-28.19h-137.59v15.22l1.34.37,38.65,10.71c4.35,1.18,6.68,4.1,7.14,8.62.03.31.13.56.15.89.22,13.45.32,26.39.32,38.79v146.87c0,12.46-.11,25.46-.33,38.96-.2,5.08-2.64,8.25-7.29,9.51l-39.99,11.08v15.22h178.78v-15.22l-33.28-10.12c-4.65-1.28-7.07-4.75-7.29-10.47-.42-21.97-.63-46.14-.63-72.55v-136.25c18.59-10.12,36.65-15.21,54.19-15.21,20.07,0,35.17,5.66,45.31,16.96,10.14,11.3,15.21,29.94,15.21,55.92v132.76c0,10.14-.11,16.8-.31,19.96-.43,4.86-3.07,8.03-7.94,9.51l-31.04,9.49v15.22h176.96v-15.22l-38.81-11.08Z"/>
    <path d="M1184.62,1072.78v15.21l33.74,9.51c-16.25,43.93-32.83,87.13-49.74,129.58-5.28,12.89-10.56,26.63-15.84,41.2-5.08-15.01-10.03-28.73-14.9-41.2-18.37-46.88-34.33-90.07-47.84-129.58l32.95-9.51v-15.21h-171.1v15.21l31.68,8.88c5.91,2.12,10.56,6.85,13.96,14.25l104.2,257.92h43.89c11.18-28.24,27.67-68.62,49.45-121.2,22.29-53.75,41.67-99.85,58.15-138.29,2.96-6.55,7.07-10.67,12.37-12.37l33.42-9.18v-15.21h-114.38Z"/>
  </g>
  <g>
    <path class="cls-2" d="M209.51,1596.71v-83h25.32v81.97c0,26.77,13.8,40.98,36.45,40.98s36.25-13.38,36.25-39.95v-83h25.34v81.76c0,43.04-24.3,64.67-61.99,64.67s-61.37-21.63-61.37-63.44Z"/>
    <path class="cls-2" d="M391.33,1513.71h23.47l77.24,99.68v-99.68h24.92v144.17h-21.22l-79.49-102.57v102.57h-24.92v-144.17Z"/>
    <path class="cls-2" d="M579.12,1513.71h25.34v144.17h-25.34v-144.17Z"/>
    <path class="cls-2" d="M654.27,1513.71h28.01l43.45,110.8,43.25-110.8h27.4l-59.74,145.2h-22.65l-59.72-145.2Z"/>
    <path class="cls-2" d="M844.76,1513.71h106.89v22.66h-81.57v37.48h72.3v22.86h-72.3v38.52h82.59v22.65h-107.91v-144.17Z"/>
    <path class="cls-2" d="M1006.41,1513.71h64.26c18.12,0,32.34,5.36,41.61,14.41,7.62,7.82,11.94,18.54,11.94,31.11v.41c0,23.68-14.2,37.89-34.19,43.66l38.92,54.58h-30.07l-35.41-50.26h-31.72v50.26h-25.34v-144.17ZM1068.82,1585.17c18.12,0,29.65-9.47,29.65-24.09v-.41c0-15.45-11.11-23.88-29.87-23.88h-36.86v48.39h37.07Z"/>
    <path class="cls-2" d="M1169.29,1636.87l15.23-18.13c13.8,11.95,27.81,18.74,45.52,18.74,15.65,0,25.54-7.41,25.54-18.12v-.41c0-10.3-5.76-15.86-32.54-22.04-30.69-7.41-47.99-16.48-47.99-43.04v-.41c0-24.72,20.6-41.81,49.23-41.81,21.01,0,37.68,6.38,52.3,18.13l-13.58,19.15c-12.98-9.68-25.96-14.83-39.14-14.83-14.83,0-23.47,7.61-23.47,17.09v.41c0,11.12,6.58,16.06,34.39,22.65,30.47,7.41,46.14,18.34,46.14,42.22v.41c0,26.98-21.22,43.04-51.5,43.04-22.03,0-42.83-7.61-60.13-23.06Z"/>
    <path class="cls-2" d="M1335.89,1513.71h25.32v144.17h-25.32v-144.17Z"/>
    <path class="cls-2" d="M1458.61,1537.19h-45.92v-23.48h117.18v23.48h-45.92v120.68h-25.34v-120.68Z"/>
    <path class="cls-2" d="M1622.3,1601.03l-57.24-87.32h30.05l40.16,63.64,40.79-63.64h29.03l-57.26,86.71v57.46h-25.54v-56.85Z"/>
  </g>
</svg>